      <svg
        width="12.000000"
        height="7.148682"
        viewBox="0 0 12 7.14868"
        fill="none"
        xmlns="http://www.w3.org/2000/svg"
        xmlns:xlink="http://www.w3.org/1999/xlink"
      >
        <desc>Created with Pixso.</desc>
        <defs />
        <path
          id="Vector"
          d="M6.80957 6.81006L11.6611 1.95776C11.7686 1.85156 11.8535 1.72485 11.9121 1.58545C11.9697 1.44604 12 1.29639 12 1.14526C12 0.994141 11.9697 0.844727 11.9121 0.705078C11.8535 0.565674 11.7686 0.439209 11.6611 0.332764C11.4473 0.119629 11.1572 0 10.8545 0C10.5527 0 10.2627 0.119629 10.0479 0.332764L5.99707 4.38403L1.94531 0.332764C1.73145 0.119629 1.44141 0 1.13867 0C0.835938 0 0.545898 0.119629 0.332031 0.332764C0.225586 0.439697 0.141602 0.56665 0.0849609 0.706055C0.0283203 0.845459 -0.000976562 0.994629 0 1.14526C-0.000976562 1.2959 0.0283203 1.44531 0.0849609 1.58472C0.141602 1.72412 0.225586 1.85083 0.332031 1.95776L5.18457 6.81006C5.29102 6.91748 5.41699 7.00244 5.55664 7.06055C5.69629 7.11865 5.8457 7.14868 5.99707 7.14868C6.14746 7.14868 6.29688 7.11865 6.43652 7.06055C6.57617 7.00244 6.70312 6.91748 6.80957 6.81006Z"
          fill="#2B2929"
          fill-opacity="1.000000"
          fill-rule="nonzero"
        />
      </svg>