      <svg
        width="11.996094"
        height="12.009888"
        viewBox="0 0 11.9961 12.0099"
        fill="none"
        xmlns="http://www.w3.org/2000/svg"
        xmlns:xlink="http://www.w3.org/1999/xlink"
      >
        <desc>Created with Pixso.</desc>
        <defs />
        <path
          id="Vector"
          d="M1 5.00415L8.58984 5.00415L5.29297 1.71411C5.10156 1.52576 4.99609 1.27039 4.99609 1.00415C4.99609 0.737793 5.10156 0.482422 5.29297 0.294067C5.48047 0.105835 5.73438 0 6 0C6.26562 0 6.52344 0.105835 6.71094 0.294067L11.7109 5.29407C11.8008 5.38916 11.875 5.50134 11.9219 5.62415C12.0195 5.86755 12.0195 6.14062 11.9219 6.38403C11.875 6.50684 11.8008 6.61902 11.7109 6.71411L6.71094 11.7141C6.61719 11.8079 6.50781 11.8822 6.38672 11.933C6.26562 11.9838 6.13281 12.0099 6 12.0099C5.86719 12.0099 5.73828 11.9838 5.61719 11.933C5.49609 11.8822 5.38281 11.8079 5.29297 11.7141C5.19922 11.6211 5.12109 11.5105 5.07031 11.3887C5.01953 11.2668 4.99609 11.1361 4.99609 11.0042C4.99609 10.8721 5.01953 10.7413 5.07031 10.6195C5.12109 10.4977 5.19922 10.3871 5.29297 10.2941L8.58984 7.00415L1 7.00415C0.734375 7.00415 0.480469 6.89868 0.292969 6.71118C0.105469 6.52368 0 6.26929 0 6.00415C0 5.73889 0.105469 5.4845 0.292969 5.297C0.480469 5.1095 0.734375 5.00415 1 5.00415Z"
          fill="#FFFFFF"
          fill-opacity="1.000000"
          fill-rule="nonzero"
        />
      </svg>