        <svg
          width="11.996094"
          height="12.009888"
          viewBox="0 0 11.9961 12.0099"
          fill="none"
          xmlns="http://www.w3.org/2000/svg"
          xmlns:xlink="http://www.w3.org/1999/xlink"
        >
          <desc>Created with Pixso.</desc>
          <defs />
          <path
            id="Vector"
            d="M10.9961 5.00415L3.40625 5.00415L6.70312 1.71411C6.89453 1.52576 7 1.27039 7 1.00415C7 0.737793 6.89453 0.482422 6.70312 0.294067C6.51562 0.105835 6.26172 0 5.99609 0C5.73047 0 5.47266 0.105835 5.28516 0.294067L0.285156 5.29407C0.195312 5.38916 0.121094 5.50134 0.0742188 5.62415C-0.0234375 5.86755 -0.0234375 6.14062 0.0742188 6.38403C0.121094 6.50684 0.195312 6.61902 0.285156 6.71411L5.28516 11.7141C5.37891 11.8079 5.48828 11.8822 5.60938 11.933C5.73047 11.9838 5.86328 12.0099 5.99609 12.0099C6.12891 12.0099 6.25781 11.9838 6.37891 11.933C6.5 11.8822 6.61328 11.8079 6.70312 11.7141C6.79688 11.6211 6.875 11.5105 6.92578 11.3887C6.97656 11.2668 7 11.1361 7 11.0042C7 10.8721 6.97656 10.7413 6.92578 10.6195C6.875 10.4977 6.79688 10.3871 6.70312 10.2941L3.40625 7.00415L10.9961 7.00415C11.2617 7.00415 11.5156 6.89868 11.7031 6.71118C11.8906 6.52368 11.9961 6.26929 11.9961 6.00415C11.9961 5.73889 11.8906 5.4845 11.7031 5.297C11.5156 5.1095 11.2617 5.00415 10.9961 5.00415Z"
            fill="#FFFFFF"
            fill-opacity="1.000000"
            fill-rule="nonzero"
          />
        </svg>