    <svg
              width="12.003906"
              height="12.005798"
              viewBox="0 0 15.0039 12.0058"
              fill="none"
              xmlns="http://www.w3.org/2000/svg"
              xmlns:xlink="http://www.w3.org/1999/xlink"
            >
              <desc>Created with Pixso.</desc>
              <defs />
              <path
                id="Vector"
                d="M11.9258 0.619995C11.8242 0.375671 11.6289 0.181458 11.3867 0.0800171C11.2656 0.0287476 11.1367 0.00158691 11.0039 0L1.00391 0C0.742188 0 0.484375 0.105347 0.296875 0.292908C0.109375 0.480408 0.00390625 0.734802 0.00390625 1C0.00390625 1.2652 0.109375 1.51959 0.296875 1.70709C0.484375 1.89465 0.742188 2 1.00391 2L8.59766 2L0.296875 10.29C0.203125 10.3829 0.128906 10.4936 0.078125 10.6154C0.0273438 10.7373 0 10.868 0 11C0 11.132 0.0273438 11.2627 0.078125 11.3846C0.128906 11.5064 0.203125 11.6171 0.296875 11.71C0.390625 11.8037 0.5 11.8781 0.621094 11.9289C0.742188 11.9797 0.875 12.0058 1.00391 12.0058C1.13672 12.0058 1.26953 11.9797 1.39062 11.9289C1.51172 11.8781 1.62109 11.8037 1.71484 11.71L10.0039 3.40997L10.0039 11C10.0039 11.2652 10.1094 11.5196 10.2969 11.7071C10.4844 11.8947 10.7422 12 11.0039 12C11.2695 12 11.5234 11.8947 11.7148 11.7071C11.9023 11.5196 12.0039 11.2652 12.0039 11L12.0039 1C12.0039 0.869324 11.9766 0.740234 11.9258 0.619995Z"
                fill="#FFBC57"
                fill-opacity="1.000000"
                fill-rule="nonzero"
              />
            </svg>