<svg
              width="44.625000"
              height="52.525330"
              viewBox="0 0 44.625 52.5253"
              fill="none"
              xmlns="http://www.w3.org/2000/svg"
            >
              <defs />
              <path
                id="Vector (Stroke)"
                d="M33.4961 0.183533C33.8691 0.410583 34.0957 0.814636 34.0957 1.25L34.0957 23.6298C34.0957 24.3201 33.5352 24.8798 32.8457 24.8798C32.1543 24.8798 31.5957 24.3201 31.5957 23.6298L31.5957 3.29468L28.0176 5.12714C27.6562 5.31238 27.2266 5.31024 26.8672 5.12128L22.1816 2.6618L17.4961 5.12128C17.1328 5.31232 16.6992 5.31232 16.334 5.12128L11.6504 2.6618L6.96484 5.12128C6.59766 5.31445 6.1582 5.31213 5.79102 5.11517L2.5 3.34277L2.5 43.8954L5.91406 42.018C6.28906 41.8117 6.74219 41.8117 7.11914 42.018L11.7812 44.5829L16.4453 42.018C17.0508 41.6853 17.8105 41.906 18.1426 42.5109C18.4746 43.1158 18.2539 43.8759 17.6504 44.2086L12.3848 47.1047C12.0098 47.3111 11.5547 47.3111 11.1797 47.1047L6.51562 44.5399L1.85156 47.1047C1.46484 47.3177 0.994141 47.3104 0.613281 47.0855C0.232422 46.8605 0 46.4514 0 46.0095L0 1.25C0 0.810059 0.230469 0.402466 0.609375 0.17688C0.986328 -0.0487671 1.45508 -0.0592041 1.8418 0.149414L6.39258 2.59888L11.0684 0.14325C11.4336 -0.0477295 11.8672 -0.0477295 12.2305 0.14325L16.916 2.60278L21.6016 0.14325C21.9648 -0.0477295 22.3984 -0.0477295 22.7617 0.14325L27.4551 2.60651L32.2754 0.137451C32.6621 -0.0610352 33.125 -0.0435791 33.4961 0.183533Z"
                fill="#FFFFFF"
                fill-opacity="1.000000"
                fill-rule="evenodd"
              />
              <path
                id="Vector (Stroke)"
                d="M11.8477 13.0981C11.8477 12.4077 12.4082 11.8481 13.0977 11.8481L26.2617 11.8481C26.9531 11.8481 27.5117 12.4077 27.5117 13.0981C27.5117 13.7885 26.9531 14.3481 26.2617 14.3481L13.0977 14.3481C12.4082 14.3481 11.8477 13.7885 11.8477 13.0981Z"
                fill="#FFFFFF"
                fill-opacity="1.000000"
                fill-rule="evenodd"
              />
              <path
                id="Vector (Stroke)"
                d="M5.26562 26.2627C5.26562 25.5723 5.82617 25.0127 6.51562 25.0127L22.3125 25.0127C23.0039 25.0127 23.5625 25.5723 23.5625 26.2627C23.5625 26.9531 23.0039 27.5127 22.3125 27.5127L6.51562 27.5127C5.82617 27.5127 5.26562 26.9531 5.26562 26.2627Z"
                fill="#FFFFFF"
                fill-opacity="1.000000"
                fill-rule="evenodd"
              />
              <path
                id="Vector (Stroke)"
                d="M5.26562 31.5284C5.26562 30.8381 5.82617 30.2784 6.51562 30.2784L15.7305 30.2784C16.4219 30.2784 16.9805 30.8381 16.9805 31.5284C16.9805 32.2188 16.4219 32.7784 15.7305 32.7784L6.51562 32.7784C5.82617 32.7784 5.26562 32.2188 5.26562 31.5284Z"
                fill="#FFFFFF"
                fill-opacity="1.000000"
                fill-rule="evenodd"
              />
              <path
                id="Vector (Stroke)"
                d="M11.8477 18.364C11.8477 17.6736 12.4082 17.114 13.0977 17.114L22.3125 17.114C23.0039 17.114 23.5625 17.6736 23.5625 18.364C23.5625 19.0543 23.0039 19.614 22.3125 19.614L13.0977 19.614C12.4082 19.614 11.8477 19.0543 11.8477 18.364Z"
                fill="#FFFFFF"
                fill-opacity="1.000000"
                fill-rule="evenodd"
              />
              <path
                id="Vector (Stroke)"
                d="M5.26562 13.0981C5.26562 12.4077 5.82617 11.8481 6.51562 11.8481L9.14844 11.8481C9.83984 11.8481 10.3984 12.4077 10.3984 13.0981C10.3984 13.7885 9.83984 14.3481 9.14844 14.3481L6.51562 14.3481C5.82617 14.3481 5.26562 13.7885 5.26562 13.0981Z"
                fill="#FFFFFF"
                fill-opacity="1.000000"
                fill-rule="evenodd"
              />
              <path
                id="Vector (Stroke)"
                d="M5.26562 18.3639C5.26562 17.6735 5.82617 17.1139 6.51562 17.1139L9.14844 17.1139C9.83984 17.1139 10.3984 17.6735 10.3984 18.3639C10.3984 19.0543 9.83984 19.6139 9.14844 19.6139L6.51562 19.6139C5.82617 19.6139 5.26562 19.0543 5.26562 18.3639Z"
                fill="#FFFFFF"
                fill-opacity="1.000000"
                fill-rule="evenodd"
              />
              <path
                id="Vector (Stroke)"
                d="M31.5273 28.8291C25.6738 28.8291 20.9297 33.574 20.9297 39.4272C20.9297 45.2804 25.6738 50.0253 31.5273 50.0253C37.3809 50.0253 42.125 45.2804 42.125 39.4272C42.125 33.574 37.3809 28.8291 31.5273 28.8291ZM18.4297 39.4272C18.4297 32.1933 24.293 26.3291 31.5273 26.3291C38.7617 26.3291 44.625 32.1933 44.625 39.4272C44.625 46.6611 38.7617 52.5253 31.5273 52.5253C24.293 52.5253 18.4297 46.6611 18.4297 39.4272Z"
                fill="#FFFFFF"
                fill-opacity="1.000000"
                fill-rule="evenodd"
              />
              <path
                id="Vector (Stroke)"
                d="M30.2109 35.4114C29.4531 35.4114 28.8281 36.0366 28.8281 36.7943C28.8281 37.5521 29.4531 38.1772 30.2109 38.1772L32.8438 38.1772C34.9824 38.1772 36.7266 39.9216 36.7266 42.0601C36.7266 44.1985 34.9824 45.943 32.8438 45.943L27.5781 45.943C26.8887 45.943 26.3281 45.3834 26.3281 44.693C26.3281 44.0027 26.8887 43.443 27.5781 43.443L32.8438 43.443C33.6016 43.443 34.2266 42.8179 34.2266 42.0601C34.2266 41.3024 33.6016 40.6772 32.8438 40.6772L30.2109 40.6772C28.0723 40.6772 26.3281 38.9327 26.3281 36.7943C26.3281 34.6558 28.0723 32.9114 30.2109 32.9114L35.4766 32.9114C36.168 32.9114 36.7266 33.471 36.7266 34.1614C36.7266 34.8517 36.168 35.4114 35.4766 35.4114L30.2109 35.4114Z"
                fill="#FFFFFF"
                fill-opacity="1.000000"
                fill-rule="evenodd"
              />
              <path
                id="Vector (Stroke)"
                d="M36.8594 39.4272C36.8594 38.7369 37.4199 38.1772 38.1094 38.1772L40.7422 38.1772C41.4336 38.1772 41.9922 38.7369 41.9922 39.4272C41.9922 40.1176 41.4336 40.6772 40.7422 40.6772L38.1094 40.6772C37.4199 40.6772 36.8594 40.1176 36.8594 39.4272Z"
                fill="#FFFFFF"
                fill-opacity="1.000000"
                fill-rule="evenodd"
              />
              <path
                id="Vector (Stroke)"
                d="M21.0625 39.4272C21.0625 38.7369 21.623 38.1772 22.3125 38.1772L24.9453 38.1772C25.6367 38.1772 26.1953 38.7369 26.1953 39.4272C26.1953 40.1176 25.6367 40.6772 24.9453 40.6772L22.3125 40.6772C21.623 40.6772 21.0625 40.1176 21.0625 39.4272Z"
                fill="#FFFFFF"
                fill-opacity="1.000000"
                fill-rule="evenodd"
              />
            </svg>