            <svg
              width="37.500000"
              height="25.000000"
              viewBox="0 0 37.5 25"
              fill="none"
              xmlns="http://www.w3.org/2000/svg"
              xmlns:xlink="http://www.w3.org/1999/xlink"
            >
              <desc>Created with Pixso.</desc>
              <defs />
              <path
                id="Vector"
                d="M35.4165 10.4167L2.0835 10.4167C0.833496 10.4167 0 11.25 0 12.5C0 13.75 0.833496 14.5833 2.0835 14.5833L35.4165 14.5833C36.6665 14.5833 37.5 13.75 37.5 12.5C37.5 11.25 36.6665 10.4167 35.4165 10.4167ZM2.0835 4.16667L35.4165 4.16667C36.6665 4.16667 37.5 3.33333 37.5 2.08333C37.5 0.833332 36.6665 0 35.4165 0L2.0835 0C0.833496 0 0 0.833332 0 2.08333C0 3.33333 0.833496 4.16667 2.0835 4.16667ZM35.4165 20.8333L2.0835 20.8333C0.833496 20.8333 0 21.6667 0 22.9167C0 24.1667 0.833496 25 2.0835 25L35.4165 25C36.6665 25 37.5 24.1667 37.5 22.9167C37.5 21.6667 36.6665 20.8333 35.4165 20.8333Z"
                fill="#535353"
                fill-opacity="1.000000"
                fill-rule="nonzero"
              />
            </svg>