        <svg
          width="50.000000"
          height="50.000000"
          viewBox="0 0 50 50"
          fill="none"
          xmlns="http://www.w3.org/2000/svg"
          xmlns:xlink="http://www.w3.org/1999/xlink"
        >
          <desc>Created with Pixso.</desc>
          <defs />
          <g opacity="0.200000">
            <circle
              id="Ellipse 9"
              cx="25.000000"
              cy="25.000000"
              r="24.000000"
              stroke="#B1B1B1"
              stroke-opacity="1.000000"
              stroke-width="2.000000"
            />
          </g>
          <path
            id="Vector"
            d="M32.6992 16.2L30.5 16.2L30.5 15.1001C30.5 14.8083 30.3848 14.5286 30.1777 14.3223C29.9707 14.116 29.6914 14 29.4004 14C29.1074 14 28.8281 14.116 28.623 14.3223C28.416 14.5286 28.3008 14.8083 28.3008 15.1001L28.3008 16.2L21.6992 16.2L21.6992 15.1001C21.6992 14.8083 21.584 14.5286 21.377 14.3223C21.1719 14.116 20.8926 14 20.5996 14C20.3086 14 20.0293 14.116 19.8223 14.3223C19.6152 14.5286 19.5 14.8083 19.5 15.1001L19.5 16.2L17.3008 16.2C16.4238 16.2 15.5859 16.5476 14.9668 17.1665C14.3477 17.7854 14 18.6248 14 19.5L14 32.7C14 33.5752 14.3477 34.4146 14.9668 35.0334C15.5859 35.6523 16.4238 36 17.3008 36L32.6992 36C33.5762 36 34.4141 35.6523 35.0332 35.0334C35.6523 34.4146 36 33.5752 36 32.7L36 19.5C36 18.6248 35.6523 17.7854 35.0332 17.1665C34.4141 16.5476 33.5762 16.2 32.6992 16.2ZM33.8008 32.7C33.8008 32.9917 33.6836 33.2715 33.4785 33.4778C33.2715 33.6841 32.9922 33.8 32.6992 33.8L17.3008 33.8C17.0078 33.8 16.7285 33.6841 16.5215 33.4778C16.3164 33.2715 16.1992 32.9917 16.1992 32.7L16.1992 25L33.8008 25L33.8008 32.7ZM33.8008 22.8L16.1992 22.8L16.1992 19.5C16.1992 19.2083 16.3164 18.9285 16.5215 18.7222C16.7285 18.5159 17.0078 18.3999 17.3008 18.3999L19.5 18.3999L19.5 19.5C19.5 19.7917 19.6152 20.0715 19.8223 20.2778C20.0293 20.4841 20.3086 20.6001 20.5996 20.6001C20.8926 20.6001 21.1719 20.4841 21.377 20.2778C21.584 20.0715 21.6992 19.7917 21.6992 19.5L21.6992 18.3999L28.3008 18.3999L28.3008 19.5C28.3008 19.7917 28.416 20.0715 28.623 20.2778C28.8281 20.4841 29.1074 20.6001 29.4004 20.6001C29.6914 20.6001 29.9707 20.4841 30.1777 20.2778C30.3848 20.0715 30.5 19.7917 30.5 19.5L30.5 18.3999L32.6992 18.3999C32.9922 18.3999 33.2715 18.5159 33.4785 18.7222C33.6836 18.9285 33.8008 19.2083 33.8008 19.5L33.8008 22.8Z"
            fill="#B1B1B1"
            fill-opacity="1.000000"
            fill-rule="nonzero"
          />
        </svg>