<svg
        width="50.000000"
        height="50.000000"
        viewBox="0 0 50 50"
        fill="none"
        xmlns="http://www.w3.org/2000/svg"
        xmlns:xlink="http://www.w3.org/1999/xlink"
      >
        <desc>Created with Pixso.</desc>
        <defs />
        <g opacity="0.200000">
          <circle
            id="Ellipse 9"
            cx="25.000000"
            cy="25.000000"
            r="24.000000"
            stroke="#B1B1B1"
            stroke-opacity="1.000000"
            stroke-width="2.000000"
          />
        </g>
        <path
          id="Vector"
          d="M31.4082 26C31.1875 26 30.957 25.9299 30.7383 25.8799C30.293 25.7805 29.8555 25.6501 29.4277 25.49C28.9629 25.3213 28.4531 25.3301 27.9961 25.5146C27.5391 25.6992 27.1641 26.0466 26.9473 26.49L26.7285 26.95C25.7559 26.3992 24.8594 25.7271 24.0586 24.95C23.2812 24.1484 22.6094 23.2512 22.0586 22.28L22.5176 22.0701C22.9609 21.853 23.3086 21.4795 23.4922 21.0217C23.6777 20.564 23.6855 20.054 23.5176 19.5901C23.3594 19.1589 23.2285 18.718 23.127 18.27C23.0781 18.05 23.0371 17.8201 23.0078 17.6001C22.8867 16.8955 22.5176 16.2578 21.9668 15.8013C21.418 15.3447 20.7227 15.0996 20.0078 15.1101L16.998 15.1101C16.5742 15.1094 16.1562 15.1982 15.7715 15.3706C15.3848 15.543 15.0391 15.7949 14.7578 16.1101C14.4707 16.4336 14.2559 16.8157 14.1289 17.23C14.0039 17.6443 13.9688 18.0811 14.0273 18.51C14.5723 22.6721 16.4727 26.5386 19.4375 29.51C22.4082 32.4749 26.2754 34.3765 30.4375 34.9199C30.5684 34.9299 30.6973 34.9299 30.8281 34.9199C31.5645 34.9211 32.2773 34.6506 32.8281 34.1599C33.1426 33.8782 33.3945 33.533 33.5664 33.147C33.7402 32.7607 33.8281 32.3428 33.8281 31.9199L33.8281 28.9199C33.8223 28.229 33.5781 27.561 33.1367 27.0291C32.6973 26.4971 32.0859 26.1335 31.4082 26ZM31.8984 32C31.8965 32.1396 31.8672 32.2776 31.8105 32.405C31.7539 32.5325 31.6719 32.6465 31.5684 32.74C31.459 32.8398 31.3281 32.9141 31.1855 32.9573C31.0449 33.0005 30.8945 33.0117 30.748 32.99C27.0156 32.5027 23.5488 30.802 20.877 28.1499C18.2051 25.4775 16.4902 21.9973 15.998 18.25C15.9766 18.1033 15.9863 17.9536 16.0312 17.8118C16.0742 17.6699 16.1484 17.5396 16.248 17.4299C16.3418 17.3252 16.459 17.2415 16.5879 17.1846C16.7168 17.1277 16.8574 17.0989 16.998 17.1001L19.998 17.1001C20.2285 17.0942 20.4551 17.1689 20.6367 17.3113C20.8203 17.4534 20.9473 17.6543 20.998 17.8799C20.998 18.1499 21.0879 18.4299 21.1484 18.7C21.2637 19.2239 21.418 19.7385 21.6074 20.24L20.207 20.8999C19.9668 21.0105 19.7793 21.2119 19.6875 21.46C19.5879 21.7034 19.5879 21.9766 19.6875 22.22C21.127 25.3027 23.6055 27.7808 26.6875 29.22C26.9316 29.3201 27.2051 29.3201 27.4473 29.22C27.6953 29.1277 27.8965 28.9407 28.0078 28.7L28.6387 27.3C29.1543 27.488 29.6816 27.6418 30.2168 27.76C30.4785 27.8201 30.7578 27.8701 31.0273 27.9099C31.2539 27.9607 31.4551 28.0881 31.5957 28.2705C31.7383 28.4529 31.8125 28.679 31.8086 28.9099L31.8984 32ZM25.998 15C25.7676 15 25.5273 15 25.2969 15C25.0332 15.0225 24.7871 15.1494 24.6152 15.353C24.4434 15.5564 24.3594 15.8198 24.3828 16.085C24.4062 16.3501 24.5332 16.5957 24.7363 16.7671C24.9395 16.9387 25.2031 17.0225 25.4668 17L25.998 17C27.5898 17 29.1152 17.6321 30.2402 18.7573C31.3652 19.8826 31.998 21.4087 31.998 23C31.998 23.1799 31.998 23.3501 31.998 23.53C31.9746 23.7937 32.0586 24.0557 32.2285 24.2581C32.4004 24.4604 32.6445 24.5872 32.9082 24.6101L32.9883 24.6101C33.2383 24.6111 33.4805 24.5181 33.6641 24.3496C33.8496 24.1812 33.9648 23.9492 33.9883 23.7C33.9883 23.47 33.9883 23.23 33.9883 23C33.9883 20.8799 33.1465 18.8467 31.6484 17.3467C30.1504 15.8467 28.1172 15.0027 25.998 15ZM27.998 23C27.998 23.2651 28.1035 23.5195 28.291 23.707C28.4785 23.8945 28.7324 24 28.998 24C29.2637 24 29.5176 23.8945 29.7051 23.707C29.8926 23.5195 29.998 23.2651 29.998 23C29.998 21.9392 29.5762 20.9216 28.8262 20.1716C28.0762 19.4214 27.0586 19 25.998 19C25.7324 19 25.4785 19.1055 25.291 19.293C25.1035 19.4805 24.998 19.7349 24.998 20C24.998 20.2651 25.1035 20.5195 25.291 20.707C25.4785 20.8945 25.7324 21 25.998 21C26.5273 21 27.0371 21.2107 27.4121 21.5857C27.7871 21.9609 27.998 22.4695 27.998 23Z"
          fill="#B1B1B1"
          fill-opacity="1.000000"
          fill-rule="nonzero"
        />
      </svg>