<svg
                    width="80.000000"
                    height="80.000000"
                    viewBox="0 0 80 80"
                    fill="none"
                    xmlns="http://www.w3.org/2000/svg"
                    xmlns:xlink="http://www.w3.org/1999/xlink"
                  >
                    <desc>Created with Pixso.</desc>
                    <defs />
                    <circle
                      id="ava"
                      cx="40.000000"
                      cy="40.000000"
                      r="40.000000"
                      fill="#FFFFFF"
                      fill-opacity="1.000000"
                    />
                    <path
                      id="Vector"
                      d="M17.0156 35.1197L17.0156 55.5058C17.0156 56.0618 16.6445 56.4325 16.0859 56.4325L12.3594 56.4325C11.8008 56.4325 11.4297 56.0618 11.4297 55.5058L11.4297 35.1197C11.4297 34.5638 11.8008 34.1931 12.3594 34.1931L16.0859 34.1931C16.6445 34.1931 17.0156 34.6564 17.0156 35.1197ZM67.6406 34.1931L63.918 34.1931C63.3594 34.1931 62.9844 34.5638 62.9844 35.1197L62.9844 55.5058C62.9844 56.0618 63.3594 56.4325 63.918 56.4325L67.6406 56.4325C68.1992 56.4325 68.5742 56.0618 68.5742 55.5058L68.5742 35.1197C68.5742 34.6564 68.1992 34.1931 67.6406 34.1931Z"
                      fill="#FFBC57"
                      fill-opacity="1.000000"
                      fill-rule="nonzero"
                    />
                    <path
                      id="Vector"
                      d="M61.1211 40.6795L61.1211 46.2394C61.1211 46.7953 60.7461 47.166 60.1875 47.166L19.8047 47.166C19.2461 47.166 18.875 46.7953 18.875 46.2394L18.875 40.6795C18.875 40.1235 19.2461 39.7529 19.8047 39.7529L60.1875 39.7529C60.7461 39.7529 61.1211 40.1235 61.1211 40.6795ZM19.8047 37.8996L30.7852 37.8996C31.3438 37.8996 31.7148 37.529 31.7148 36.973L31.7148 24.9266C31.7148 24.3707 31.3438 24 30.7852 24L19.8047 24C19.2461 24 18.875 24.3707 18.875 24.9266L18.875 36.973C18.875 37.529 19.2461 37.8996 19.8047 37.8996ZM34.5078 37.8996L45.4883 37.8996C46.0469 37.8996 46.418 37.529 46.418 36.973L46.418 24.9266C46.418 24.3707 46.0469 24 45.4883 24L34.5078 24C33.9492 24 33.5781 24.3707 33.5781 24.9266L33.5781 36.973C33.5781 37.529 33.9492 37.8996 34.5078 37.8996ZM60.1875 24L49.2109 24C48.6523 24 48.2812 24.3707 48.2812 24.9266L48.2812 36.973C48.2812 37.529 48.6523 37.8996 49.2109 37.8996L60.1875 37.8996C60.7461 37.8996 61.1211 37.529 61.1211 36.973L61.1211 24.9266C61.1211 24.3707 60.7461 24 60.1875 24ZM60.1875 49.0193L19.8047 49.0193C19.2461 49.0193 18.875 49.39 18.875 49.946L18.875 55.5058C18.875 56.0618 19.2461 56.4324 19.8047 56.4324L25.1992 56.4324C25.7578 56.4324 26.1289 56.0618 26.1289 55.5058L26.1289 54.5791L53.8672 54.5791L53.8672 55.5058C53.8672 56.0618 54.2383 56.4324 54.7969 56.4324L60.1875 56.4324C60.7461 56.4324 61.1211 56.0618 61.1211 55.5058L61.1211 49.946C61.1211 49.39 60.7461 49.0193 60.1875 49.0193Z"
                      fill="#FFBC57"
                      fill-opacity="1.000000"
                      fill-rule="nonzero"
                    />
                  </svg>