           <svg
              width="80.000000"
              height="80.000000"
              viewBox="0 0 80 80"
              fill="none"
              xmlns="http://www.w3.org/2000/svg"
              xmlns:xlink="http://www.w3.org/1999/xlink"
            >
              <desc>Created with Pixso.</desc>
              <defs />
              <circle
                id="Ellipse 14"
                cx="40.000000"
                cy="40.000000"
                r="40.000000"
                fill="#FFFFFF"
                fill-opacity="1.000000"
              />
              <path
                id="Vector"
                d="M56.7139 35.2802C56.4346 32.3757 55.4082 29.5931 53.7344 27.2034C52.0605 24.8135 49.7969 22.8978 47.1621 21.6428C44.5283 20.3878 41.6143 19.8363 38.7041 20.042C35.793 20.2478 32.9854 21.2036 30.5547 22.8167C28.4658 24.2134 26.7119 26.0553 25.4199 28.2103C24.1279 30.3652 23.3281 32.7797 23.0801 35.2802C22.8369 37.7642 23.1494 40.2714 23.9951 42.6196C24.8408 44.9679 26.1982 47.0985 27.9707 48.8568L38.5059 59.412C38.6904 59.5984 38.9102 59.7462 39.1523 59.8472C39.3945 59.948 39.6543 60 39.917 60C40.1797 60 40.4395 59.948 40.6816 59.8472C40.9238 59.7462 41.1436 59.5984 41.3281 59.412L51.8242 48.8568C53.5957 47.0985 54.9531 44.9679 55.7988 42.6196C56.6445 40.2714 56.957 37.7642 56.7139 35.2802ZM49.041 46.054L39.8975 55.1979L30.7529 46.054C29.4053 44.7064 28.373 43.0769 27.7305 41.2828C27.0879 39.4886 26.8506 37.5745 27.0361 35.6777C27.2227 33.7517 27.835 31.8912 28.8281 30.2308C29.8213 28.5703 31.1719 27.1514 32.7803 26.0767C34.8896 24.6757 37.3652 23.9283 39.8975 23.9283C42.4287 23.9283 44.9043 24.6757 47.0137 26.0767C48.6172 27.1472 49.9648 28.5599 50.958 30.2131C51.9512 31.8662 52.5664 33.7189 52.7578 35.6379C52.9492 37.5411 52.7148 39.463 52.0723 41.2645C51.4297 43.0659 50.3936 44.7019 49.041 46.054ZM39.8975 28.0645C38.1279 28.0645 36.3984 28.589 34.9277 29.5719C33.4561 30.5548 32.3096 31.9519 31.6328 33.5863C30.9561 35.2208 30.7783 37.0194 31.124 38.7546C31.4688 40.4897 32.3213 42.0836 33.5723 43.3346C34.8232 44.5857 36.417 45.4376 38.1523 45.7827C39.8867 46.1279 41.6855 45.9507 43.3203 45.2737C44.9551 44.5967 46.3516 43.4502 47.335 41.9791C48.3174 40.5082 48.8418 38.7787 48.8418 37.0095C48.8369 34.6387 47.8926 32.3666 46.2168 30.6902C44.54 29.0138 42.2676 28.0697 39.8975 28.0645ZM39.8975 41.979C38.9141 41.979 37.9531 41.6875 37.1357 41.1415C36.3193 40.5955 35.6816 39.8193 35.3057 38.9113C34.9297 38.0032 34.8311 37.004 35.0234 36.04C35.2148 35.076 35.6885 34.1906 36.3828 33.4955C37.0781 32.8005 37.9639 32.3273 38.9277 32.1355C39.8916 31.9437 40.8906 32.0421 41.7988 32.4183C42.707 32.7944 43.4834 33.4314 44.0293 34.2487C44.5752 35.0658 44.8662 36.0266 44.8662 37.0095C44.8662 38.3275 44.3428 39.5916 43.4111 40.5234C42.4795 41.4554 41.2148 41.979 39.8975 41.979Z"
                fill="#FFBC57"
                fill-opacity="1.000000"
                fill-rule="nonzero"
              />
            </svg>