            <svg
              width="60.000000"
              height="60.000000"
              viewBox="0 0 60 60"
              fill="none"
              xmlns="http://www.w3.org/2000/svg"
              xmlns:xlink="http://www.w3.org/1999/xlink"
            >
              <desc>Created with Pixso.</desc>
              <defs />
              <circle
                id="bg"
                cx="30.000000"
                cy="30.000000"
                r="30.000000"
                fill="#FFBC57"
                fill-opacity="1.000000"
              />
              <path
                id="Vector"
                d="M13 30.6364L13 37.4545C13 37.8162 13.1445 38.163 13.3984 38.4188C13.6543 38.6745 14.002 38.8182 14.3633 38.8182L15.7266 38.8182C15.7266 39.9031 16.1582 40.9437 16.9258 41.7109C17.6934 42.4781 18.7324 42.9091 19.8184 42.9091C20.9023 42.9091 21.9434 42.4781 22.7109 41.7109C23.4785 40.9437 23.9082 39.9031 23.9082 38.8182L32.0918 38.8182C32.0918 39.9031 32.5215 40.9437 33.2891 41.7109C34.0566 42.4781 35.0977 42.9091 36.1816 42.9091C37.2676 42.9091 38.3066 42.4781 39.0742 41.7109C39.8418 40.9437 40.2734 39.9031 40.2734 38.8182L41.6367 38.8182C41.998 38.8182 42.3457 38.6745 42.6016 38.4188C42.8555 38.163 43 37.8162 43 37.4545L43 21.0909C43 20.0059 42.5684 18.9654 41.8027 18.1982C41.0352 17.431 39.9941 17 38.9082 17L26.6367 17C25.5508 17 24.5117 17.431 23.7441 18.1982C22.9766 18.9654 22.5449 20.0059 22.5449 21.0909L22.5449 23.8182L19.8184 23.8182C19.1836 23.8182 18.5566 23.9661 17.9883 24.2501C17.4199 24.5341 16.9258 24.9465 16.5449 25.4545L13.2734 29.8182C13.2324 29.8774 13.2012 29.9416 13.1777 30.0091L13.0957 30.1591C13.0352 30.3112 13.0039 30.4728 13 30.6364ZM34.8184 38.8182C34.8184 38.5485 34.8984 38.2849 35.0488 38.0606C35.1973 37.8364 35.4102 37.6616 35.6602 37.5583C35.9082 37.4551 36.1836 37.4281 36.4473 37.4808C36.7129 37.5334 36.9551 37.6632 37.1465 37.8539C37.3359 38.0447 37.4668 38.2876 37.5195 38.5521C37.5723 38.8167 37.5449 39.0908 37.4414 39.34C37.3379 39.5892 37.1641 39.8022 36.9395 39.952C36.7148 40.1019 36.4512 40.1818 36.1816 40.1818C35.8203 40.1818 35.4727 40.0381 35.2168 39.7824C34.9609 39.5267 34.8184 39.1798 34.8184 38.8182ZM25.2734 21.0909C25.2734 20.7292 25.416 20.3824 25.6719 20.1266C25.9277 19.871 26.2754 19.7273 26.6367 19.7273L38.9082 19.7273C39.2715 19.7273 39.6172 19.871 39.873 20.1266C40.1289 20.3824 40.2734 20.7292 40.2734 21.0909L40.2734 36.0909L39.209 36.0909C38.8262 35.6691 38.3574 35.332 37.8379 35.1014C37.3164 34.8707 36.752 34.7516 36.1816 34.7516C35.6113 34.7516 35.0488 34.8707 34.5273 35.1014C34.0059 35.332 33.5371 35.6691 33.1543 36.0909L25.2734 36.0909L25.2734 21.0909ZM22.5449 29.2727L17.0918 29.2727L18.7266 27.0909C18.8535 26.9216 19.0195 26.7841 19.209 26.6894C19.3984 26.5947 19.6074 26.5455 19.8184 26.5455L22.5449 26.5455L22.5449 29.2727ZM18.4551 38.8182C18.4551 38.5485 18.5352 38.2849 18.6836 38.0606C18.834 37.8364 19.0469 37.6616 19.2969 37.5583C19.5449 37.4551 19.8203 37.4281 20.084 37.4808C20.3496 37.5334 20.5918 37.6632 20.7832 37.8539C20.9727 38.0447 21.1035 38.2876 21.1562 38.5521C21.209 38.8167 21.1816 39.0908 21.0781 39.34C20.9746 39.5892 20.8008 39.8022 20.5762 39.952C20.3516 40.1019 20.0879 40.1818 19.8184 40.1818C19.457 40.1818 19.1094 40.0381 18.8535 39.7824C18.5977 39.5267 18.4551 39.1798 18.4551 38.8182ZM15.7266 32L22.5449 32L22.5449 35.7909C21.7402 35.0717 20.6836 34.6996 19.6055 34.7558C18.5293 34.812 17.5156 35.2919 16.791 36.0909L15.7266 36.0909L15.7266 32Z"
                fill="#FFFFFF"
                fill-opacity="1.000000"
                fill-rule="nonzero"
              />
            </svg>