<svg
            width="22.000000"
            height="19.000000"
            viewBox="0 0 22 19"
            fill="none"
            xmlns="http://www.w3.org/2000/svg"
            xmlns:xlink="http://www.w3.org/1999/xlink"
          >
            <desc>Created with Pixso.</desc>
            <defs />
            <path
              id="Vector (Stroke)"
              d="M3.5 8L18.5 8C18.9141 8 19.2969 8.14008 19.5781 8.42145C19.8604 8.70282 20 9.08636 20 9.5C20 9.91364 19.8604 10.2972 19.5781 10.5786C19.2969 10.8599 18.9141 11 18.5 11L3.5 11C3.08594 11 2.70312 10.8599 2.42188 10.5786C2.13965 10.2972 2 9.91364 2 9.5C2 9.08636 2.13965 8.70282 2.42188 8.42145C2.70312 8.14008 3.08594 8 3.5 8ZM20.5 3L1.5 3C1.08594 3 0.703125 2.85992 0.421875 2.57855C0.139648 2.29718 0 1.91364 0 1.5C0 1.08636 0.139648 0.70282 0.421875 0.421448C0.703125 0.140076 1.08594 0 1.5 0L20.5 0C20.9141 0 21.2969 0.140076 21.5781 0.421448C21.8604 0.70282 22 1.08636 22 1.5C22 1.91364 21.8604 2.29718 21.5781 2.57855C21.2969 2.85992 20.9141 3 20.5 3ZM5.5 16L16.5 16C16.9141 16 17.2969 16.1401 17.5781 16.4214C17.8604 16.7028 18 17.0864 18 17.5C18 17.9136 17.8604 18.2972 17.5781 18.5786C17.2969 18.8599 16.9141 19 16.5 19L5.5 19C5.08594 19 4.70312 18.8599 4.42188 18.5786C4.13965 18.2972 4 17.9136 4 17.5C4 17.0864 4.13965 16.7028 4.42188 16.4214C4.70312 16.1401 5.08594 16 5.5 16ZM3.5 8.5L18.5 8.5C19.0996 8.5 19.5 8.90002 19.5 9.5C19.5 10.1 19.0996 10.5 18.5 10.5L3.5 10.5C2.90039 10.5 2.5 10.1 2.5 9.5C2.5 8.90002 2.90039 8.5 3.5 8.5ZM20.5 2.5L1.5 2.5C0.900391 2.5 0.5 2.09998 0.5 1.5C0.5 0.900024 0.900391 0.5 1.5 0.5L20.5 0.5C21.0996 0.5 21.5 0.900024 21.5 1.5C21.5 2.09998 21.0996 2.5 20.5 2.5ZM5.5 16.5L16.5 16.5C17.0996 16.5 17.5 16.9 17.5 17.5C17.5 18.1 17.0996 18.5 16.5 18.5L5.5 18.5C4.90039 18.5 4.5 18.1 4.5 17.5C4.5 16.9 4.90039 16.5 5.5 16.5Z"
              fill="#000000"
              fill-opacity="1.000000"
              fill-rule="evenodd"
            />
          </svg>

