 <svg
              width="70.000000"
              height="70.000000"
              viewBox="0 0 70 70"
              fill="none"
              xmlns="http://www.w3.org/2000/svg"
              xmlns:xlink="http://www.w3.org/1999/xlink"
            >
              <desc>Created with Pixso.</desc>
              <defs />
              <path
                id="Vector"
                d="M35 0C15.6699 0 0 15.6692 0 35C0 54.3308 15.6699 70 35 70C54.3301 70 70 54.3308 70 35C70 15.6692 54.3301 0 35 0ZM35 64.5312C18.6895 64.5312 5.46875 51.3101 5.46875 35C5.46875 18.6899 18.6895 5.46875 35 5.46875C51.3105 5.46875 64.5312 18.6899 64.5312 35C64.5312 51.3101 51.3105 64.5312 35 64.5312Z"
                fill="#FFBC57"
                fill-opacity="1.000000"
                fill-rule="nonzero"
              />
              <path
                id="Vector"
                d="M35 17.5C25.3359 17.5 17.5 25.3356 17.5 35C17.5 44.6644 25.3359 52.5 35 52.5C44.6641 52.5 52.5 44.6644 52.5 35C52.5 25.3356 44.6641 17.5 35 17.5ZM32.8125 43.75L26.25 37.1875L29.3125 33.6883L32.8125 37.1875L42.6562 26.25L45.9375 29.7492L32.8125 43.75Z"
                fill="#FFBC57"
                fill-opacity="1.000000"
                fill-rule="nonzero"
              />
            </svg>