        <svg
          width="26.667969"
          height="26.666626"
          viewBox="0 0 26.668 26.6666"
          fill="none"
          xmlns="http://www.w3.org/2000/svg"
          xmlns:xlink="http://www.w3.org/1999/xlink"
        >
          <desc>Created with Pixso.</desc>
          <defs />
          <path
            id="Vector"
            d="M16.9609 9.05334L11.2383 14.7866L9.03906 12.5867C8.92188 12.4471 8.77344 12.3337 8.60938 12.2537C8.44141 12.1737 8.26172 12.1287 8.07812 12.1216C7.89453 12.1145 7.71094 12.1455 7.53906 12.2125C7.37109 12.2795 7.21484 12.3812 7.08594 12.5111C6.95312 12.6411 6.85156 12.7965 6.78516 12.9675C6.71875 13.1387 6.6875 13.3218 6.69531 13.5054C6.70312 13.6891 6.74609 13.8693 6.82812 14.0347C6.90625 14.2001 7.01953 14.3472 7.16016 14.4667L10.293 17.6133C10.418 17.7369 10.5664 17.8347 10.7266 17.901C10.8906 17.9674 11.0664 18.001 11.2383 18C11.5898 17.9985 11.9258 17.8596 12.1719 17.6133L18.8398 10.9467C18.9648 10.8228 19.0625 10.6753 19.1328 10.5128C19.1992 10.3503 19.2344 10.176 19.2344 10C19.2344 9.82397 19.1992 9.64966 19.1328 9.48718C19.0625 9.32471 18.9648 9.17725 18.8398 9.05334C18.5898 8.80505 18.2539 8.66565 17.8984 8.66565C17.5469 8.66565 17.2109 8.80505 16.9609 9.05334ZM13.332 0C10.6953 0 8.11719 0.781982 5.92578 2.24707C3.73438 3.71216 2.02344 5.79456 1.01562 8.23083C0.00390625 10.6672 -0.257812 13.3481 0.257812 15.9346C0.769531 18.521 2.03906 20.8967 3.90625 22.7615C5.76953 24.6261 8.14453 25.896 10.7305 26.4105C13.3203 26.9249 16 26.6609 18.4375 25.6517C20.8711 24.6426 22.9531 22.9336 24.418 20.741C25.8828 18.5483 26.668 15.9705 26.668 13.3334C26.668 11.5824 26.3203 9.84851 25.6523 8.23083C24.9805 6.61316 24 5.14331 22.7617 3.90527C21.5234 2.66711 20.0547 1.68506 18.4375 1.01489C16.8164 0.344849 15.0859 0 13.332 0ZM13.332 24C11.2227 24 9.16016 23.3744 7.40625 22.2024C5.65234 21.0303 4.28516 19.3644 3.48047 17.4153C2.67188 15.4662 2.46094 13.3215 2.87109 11.2523C3.28516 9.18323 4.30078 7.28259 5.78906 5.79089C7.28125 4.29907 9.18359 3.2832 11.2539 2.87158C13.3203 2.46008 15.4648 2.67126 17.4141 3.47864C19.3633 4.28601 21.0312 5.65308 22.2031 7.40723C23.375 9.16138 24 11.2236 24 13.3334C24 16.1624 22.875 18.8754 20.875 20.8759C18.875 22.8762 16.1641 24 13.332 24Z"
            fill="#FFBC57"
            fill-opacity="1.000000"
            fill-rule="nonzero"
          />
        </svg>