<svg
          width="170.000000"
          height="170.000000"
          viewBox="0 0 170 170"
          fill="none"
          xmlns="http://www.w3.org/2000/svg"
          xmlns:xlink="http://www.w3.org/1999/xlink"
        >
          <desc>Created with Pixso.</desc>
          <defs />
          <circle
            id="Ellipse 21"
            cx="85.000000"
            cy="85.000000"
            r="85.000000"
            fill="#FFFFFF"
            fill-opacity="1.000000"
          />
          <path
            id="Vector"
            d="M138.934 71.8709C138.246 68.4991 137.215 65.1894 135.879 62.0206C134.564 58.9138 132.936 55.9142 131.041 53.1119C129.168 50.3378 127.016 47.7272 124.641 45.3591C122.268 42.9853 119.662 40.837 116.889 38.9595C114.086 37.0649 111.086 35.4411 107.98 34.1217C104.811 32.7797 101.496 31.7535 98.1289 31.0657C94.6719 30.3608 91.1211 30 87.5684 30C84.0156 30 80.4648 30.3608 77.0078 31.0657C73.6367 31.7535 70.3262 32.7854 67.1582 34.1217C64.0508 35.4354 61.0508 37.0649 58.248 38.9595C55.4746 40.8314 52.8633 42.9853 50.4961 45.3591C48.1211 47.7328 45.9746 50.3378 44.0957 53.1119C42.2012 55.9142 40.5781 58.9138 39.2578 62.0206C37.916 65.1894 36.8906 68.5048 36.2031 71.8709C35.498 75.3273 35.1367 78.8795 35.1367 82.4317C35.1367 85.9839 35.498 89.5361 36.2031 92.9924C36.8906 96.3643 37.9219 99.674 39.2578 102.843C40.5723 105.95 42.2012 108.949 44.0957 111.752C45.9688 114.526 48.1211 117.136 50.4961 119.504C52.8691 121.878 55.4746 124.026 58.248 125.904C61.0508 127.798 64.0508 129.422 67.1582 130.742C70.3262 132.084 73.6406 133.11 77.0078 133.798C80.4648 134.503 84.0156 134.863 87.5684 134.863C91.1211 134.863 94.6719 134.503 98.1289 133.798C101.5 133.11 104.811 132.078 107.98 130.742C111.086 129.428 114.086 127.798 116.889 125.904C119.662 124.032 122.273 121.878 124.641 119.504C127.016 117.131 129.162 114.526 131.041 111.752C132.936 108.949 134.559 105.95 135.879 102.843C137.221 99.674 138.246 96.3586 138.934 92.9924C139.639 89.5361 140 85.9839 140 82.4317C140 78.8795 139.639 75.3273 138.934 71.8709ZM133.494 82.4317C133.494 107.793 112.93 128.357 87.5684 128.357C62.207 128.357 41.6426 107.793 41.6426 82.4317C41.6426 57.0701 62.2012 36.5067 87.5684 36.5067C112.936 36.5067 133.494 57.0701 133.494 82.4317Z"
            fill="#FFBC57"
            fill-opacity="1.000000"
            fill-rule="nonzero"
          />
          <path
            id="Vector"
            d="M78.2363 103.852C78.2207 103.852 78.1973 103.852 78.1816 103.852C77.1719 103.835 76.2305 103.35 75.627 102.538L65.3027 88.6395C64.2305 87.196 64.5293 85.1606 65.9727 84.0893C67.416 83.018 69.4531 83.3168 70.5234 84.7603L78.3281 95.2646L104.682 62.2404C105.803 60.8364 107.85 60.6053 109.254 61.7273C110.658 62.8494 110.889 64.8961 109.768 66.3L80.7793 102.628C80.1602 103.401 79.2246 103.852 78.2363 103.852Z"
            fill="#2B2929"
            fill-opacity="1.000000"
            fill-rule="nonzero"
          />
        </svg>