   <svg
        width="80.000000"
        height="80.000000"
        viewBox="0 0 80 80"
        fill="none"
        xmlns="http://www.w3.org/2000/svg"
        xmlns:xlink="http://www.w3.org/1999/xlink"
      >
        <desc>Created with Pixso.</desc>
        <defs />
        <circle
          id="Ellipse 14"
          cx="40.000000"
          cy="40.000000"
          r="40.000000"
          fill="#FFFFFF"
          fill-opacity="1.000000"
        />
        <path
          id="Vector"
          d="M55.2695 23.5477C55.0371 23.3597 54.7656 23.2262 54.4746 23.157C54.1846 23.0876 53.8818 23.0845 53.5889 23.1476C51.4512 23.5957 49.2441 23.6013 47.1045 23.1644C44.9648 22.7274 42.9365 21.8571 41.1455 20.6068C40.8105 20.3745 40.4131 20.25 40.0049 20.25C39.5977 20.25 39.1992 20.3745 38.8643 20.6068C37.0732 21.8571 35.0459 22.7274 32.9053 23.1644C30.7656 23.6013 28.5586 23.5957 26.4209 23.1476C26.1289 23.0845 25.8262 23.0876 25.5352 23.157C25.2441 23.2262 24.9727 23.3597 24.7402 23.5477C24.5078 23.7361 24.3213 23.974 24.1934 24.244C24.0654 24.514 23.999 24.8093 24 25.1083L24 40.0129C23.998 42.8813 24.6816 45.7086 25.9941 48.2594C27.3057 50.8102 29.208 53.0106 31.542 54.6775L38.8447 59.8792C39.1836 60.1204 39.5889 60.25 40.0049 60.25C40.4209 60.25 40.8262 60.1204 41.165 59.8792L48.4678 54.6775C50.8018 53.0106 52.7041 50.8102 54.0166 48.2594C55.3281 45.7086 56.0117 42.8813 56.0098 40.0129L56.0098 25.1083C56.0107 24.8093 55.9453 24.514 55.8174 24.244C55.6885 23.974 55.502 23.7361 55.2695 23.5477ZM52.0088 40.0129C52.0107 42.2432 51.4795 44.4414 50.46 46.4249C49.4404 48.4084 47.9619 50.1198 46.1465 51.4165L40.0049 55.7979L33.8633 51.4165C32.0488 50.1198 30.5703 48.4084 29.5508 46.4249C28.5312 44.4414 28 42.2432 28.001 40.0129L28.001 27.4089C32.1953 27.7679 36.3955 26.7948 40.0049 24.6281C43.6143 26.7948 47.8145 27.7679 52.0088 27.4089L52.0088 40.0129ZM43.0859 35.4315L37.7041 40.8331L35.9238 39.0326C35.5469 38.6559 35.0361 38.4442 34.5029 38.4442C33.9707 38.4442 33.46 38.6559 33.083 39.0326C32.7061 39.4093 32.4941 39.9203 32.4941 40.453C32.4941 40.9858 32.7061 41.4967 33.083 41.8735L36.2842 45.0745C36.4697 45.262 36.6914 45.4109 36.9346 45.5125C37.1787 45.614 37.4404 45.6663 37.7041 45.6663C37.9688 45.6663 38.2295 45.614 38.4736 45.5125C38.7178 45.4109 38.9385 45.262 39.125 45.0745L46.0068 38.2523C46.3838 37.8756 46.5957 37.3646 46.5957 36.8319C46.5957 36.2991 46.3838 35.7882 46.0068 35.4115C45.6299 35.0348 45.1191 34.8231 44.5869 34.8231C44.0537 34.8231 43.543 35.0348 43.166 35.4115L43.0859 35.4315Z"
          fill="#FFBC57"
          fill-opacity="1.000000"
          fill-rule="nonzero"
        />
      </svg>