<svg
        width="50.000000"
        height="50.000000"
        viewBox="0 0 50 50"
        fill="none"
        xmlns="http://www.w3.org/2000/svg"
        xmlns:xlink="http://www.w3.org/1999/xlink"
      >
        <desc>Created with Pixso.</desc>
        <defs />
        <g opacity="0.200000">
          <circle
            id="Ellipse 9"
            cx="25.000000"
            cy="25.000000"
            r="24.000000"
            stroke="#B1B1B1"
            stroke-opacity="1.000000"
            stroke-width="2.000000"
          />
        </g>
        <path
          id="Vector"
          d="M24.8008 14C22.4668 14 20.2285 14.9272 18.5781 16.5774C16.9277 18.2278 16 20.4661 16 22.8C16 28.74 23.7559 35.45 24.0859 35.7358C24.2852 35.9062 24.5371 36 24.8008 36C25.0625 36 25.3164 35.9062 25.5156 35.7358C25.9004 35.45 33.5996 28.74 33.5996 22.8C33.5996 20.4661 32.6719 18.2278 31.0234 16.5774C29.373 14.9272 27.1348 14 24.8008 14ZM24.8008 33.415C22.457 31.2148 18.1992 26.4739 18.1992 22.8C18.1992 21.0496 18.8945 19.3708 20.1328 18.1331C21.3711 16.8953 23.0488 16.2 24.8008 16.2C26.5508 16.2 28.2285 16.8953 29.4668 18.1331C30.7051 19.3708 31.4004 21.0496 31.4004 22.8C31.4004 26.4739 27.1426 31.2258 24.8008 33.415ZM24.8008 18.3999C23.9297 18.3999 23.0781 18.658 22.3555 19.1416C21.6328 19.625 21.0684 20.3123 20.7344 21.1162C20.4023 21.9202 20.3145 22.8049 20.4844 23.6584C20.6543 24.512 21.0742 25.2959 21.6895 25.9111C22.3047 26.5266 23.0879 26.9456 23.9414 27.1155C24.7949 27.2852 25.6797 27.198 26.4844 26.865C27.2871 26.532 27.9746 25.968 28.459 25.2444C28.9414 24.521 29.1992 23.6702 29.1992 22.8C29.1992 21.6331 28.7363 20.5139 27.9121 19.6887C27.0859 18.8635 25.9668 18.3999 24.8008 18.3999ZM24.8008 25C24.3652 25 23.9395 24.8708 23.5781 24.6292C23.2168 24.3875 22.9336 24.0439 22.7676 23.6418C22.6016 23.24 22.5566 22.7976 22.6426 22.3708C22.7266 21.9441 22.9375 21.552 23.2441 21.2444C23.5527 20.9368 23.9434 20.7271 24.3711 20.6423C24.7969 20.5574 25.2402 20.6008 25.6426 20.7673C26.043 20.9338 26.3867 21.2158 26.6289 21.5776C26.8711 21.9395 27 22.3647 27 22.8C27 23.3835 26.7676 23.9431 26.3555 24.3557C25.9434 24.7681 25.3828 25 24.8008 25Z"
          fill="#B1B1B1"
          fill-opacity="1.000000"
          fill-rule="nonzero"
        />
      </svg>