<svg width="50.000000" height="50.000000" viewBox="0 0 50 50" fill="none" xmlns="http://www.w3.org/2000/svg" xmlns:xlink="http://www.w3.org/1999/xlink">
	<desc>
			Created with Pixso.
	</desc>
	<defs/>
	<circle id="Ellipse 9" cx="25.000000" cy="25.000000" r="25.000000" fill="#FFBC57" fill-opacity="1.000000"/>
	<path id="Vector" d="M32.6992 16.2L30.5 16.2L30.5 15.1C30.5 14.8083 30.3828 14.5285 30.1797 14.3222C29.9727 14.1159 29.6914 14 29.3984 14C29.1094 14 28.8281 14.1159 28.6211 14.3222C28.4141 14.5285 28.3008 14.8083 28.3008 15.1L28.3008 16.2L21.6992 16.2L21.6992 15.1C21.6992 14.8083 21.5859 14.5285 21.3789 14.3222C21.1719 14.1159 20.8906 14 20.6016 14C20.3086 14 20.0273 14.1159 19.8203 14.3222C19.6172 14.5285 19.5 14.8083 19.5 15.1L19.5 16.2L17.3008 16.2C16.4258 16.2 15.5859 16.5477 14.9648 17.1665C14.3477 17.7854 14 18.6248 14 19.5L14 32.7C14 33.5752 14.3477 34.4146 14.9648 35.0334C15.5859 35.6523 16.4258 36 17.3008 36L32.6992 36C33.5742 36 34.4141 35.6523 35.0352 35.0334C35.6523 34.4146 36 33.5752 36 32.7L36 19.5C36 18.6248 35.6523 17.7854 35.0352 17.1665C34.4141 16.5477 33.5742 16.2 32.6992 16.2ZM33.8008 32.7C33.8008 32.9917 33.6836 33.2715 33.4766 33.4778C33.2734 33.6841 32.9922 33.8 32.6992 33.8L17.3008 33.8C17.0078 33.8 16.7266 33.6841 16.5234 33.4778C16.3164 33.2715 16.1992 32.9917 16.1992 32.7L16.1992 25L33.8008 25L33.8008 32.7ZM33.8008 22.8L16.1992 22.8L16.1992 19.5C16.1992 19.2083 16.3164 18.9285 16.5234 18.7222C16.7266 18.5159 17.0078 18.4 17.3008 18.4L19.5 18.4L19.5 19.5C19.5 19.7917 19.6172 20.0715 19.8203 20.2778C20.0273 20.4841 20.3086 20.6 20.6016 20.6C20.8906 20.6 21.1719 20.4841 21.3789 20.2778C21.5859 20.0715 21.6992 19.7917 21.6992 19.5L21.6992 18.4L28.3008 18.4L28.3008 19.5C28.3008 19.7917 28.4141 20.0715 28.6211 20.2778C28.8281 20.4841 29.1094 20.6 29.3984 20.6C29.6914 20.6 29.9727 20.4841 30.1797 20.2778C30.3828 20.0715 30.5 19.7917 30.5 19.5L30.5 18.4L32.6992 18.4C32.9922 18.4 33.2734 18.5159 33.4766 18.7222C33.6836 18.9285 33.8008 19.2083 33.8008 19.5L33.8008 22.8Z" fill="#FFFFFF" fill-opacity="1.000000" fill-rule="nonzero"/>
</svg>
