<svg
            width="60.000000"
            height="60.000000"
            viewBox="0 0 60 60"
            fill="none"
            xmlns="http://www.w3.org/2000/svg"
            xmlns:xlink="http://www.w3.org/1999/xlink"
          >
            <desc>Created with Pixso.</desc>
            <defs />
            <circle
              id="bg"
              cx="30.000000"
              cy="30.000000"
              r="30.000000"
              fill="#FFBC57"
              fill-opacity="1.000000"
            />
            <path
              id="Vector"
              d="M30 28.5C29.6016 28.5 29.2207 28.658 28.9395 28.9393C28.6582 29.2206 28.5 29.6022 28.5 30L28.5 36C28.5 36.3978 28.6582 36.7794 28.9395 37.0607C29.2207 37.3419 29.6016 37.5 30 37.5C30.3984 37.5 30.7793 37.3419 31.0605 37.0607C31.3418 36.7794 31.5 36.3978 31.5 36L31.5 30C31.5 29.6022 31.3418 29.2206 31.0605 28.9393C30.7793 28.658 30.3984 28.5 30 28.5ZM30.5703 22.62C30.2051 22.47 29.7949 22.47 29.4297 22.62C29.2461 22.6914 29.0781 22.7984 28.9355 22.935C28.8027 23.0808 28.6953 23.2482 28.6191 23.43C28.5352 23.608 28.4941 23.8032 28.5 24C28.498 24.1974 28.5371 24.3931 28.6113 24.5759C28.6855 24.7586 28.7969 24.9248 28.9355 25.065C29.0801 25.1975 29.248 25.304 29.4297 25.38C29.6582 25.4734 29.9043 25.5095 30.1484 25.4852C30.3926 25.4608 30.627 25.3769 30.832 25.2406C31.0371 25.1043 31.2051 24.9199 31.3203 24.7036C31.4375 24.4873 31.498 24.2457 31.5 24C31.4941 23.6028 31.3398 23.2224 31.0645 22.935C30.9219 22.7984 30.7539 22.6914 30.5703 22.62ZM30 15C27.0332 15 24.1328 15.8797 21.666 17.528C19.1992 19.1762 17.2773 21.5189 16.1426 24.2597C15.0059 27.0006 14.709 30.0166 15.2891 32.9264C15.8672 35.8361 17.2949 38.5088 19.3926 40.6066C21.4902 42.7044 24.1641 44.133 27.0742 44.7118C29.9824 45.2906 33 44.9935 35.7402 43.8582C38.4805 42.7229 40.8242 40.8003 42.4727 38.3336C44.1211 35.8668 45 32.9667 45 30C45 28.0302 44.6113 26.0796 43.8574 24.2597C43.1035 22.4398 42 20.7863 40.6074 19.3934C39.2129 18.0005 37.5605 16.8956 35.7402 16.1418C33.9199 15.388 31.9707 15 30 15ZM30 42C27.627 42 25.3066 41.2962 23.334 39.9776C21.3594 38.6591 19.8223 36.7849 18.9141 34.5922C18.0059 32.3995 17.7676 29.9867 18.2305 27.6589C18.6934 25.3311 19.8359 23.1929 21.5156 21.5147C23.1934 19.8365 25.332 18.6936 27.6582 18.2306C29.9863 17.7675 32.4004 18.0052 34.5918 18.9135C36.7852 19.8217 38.6582 21.3598 39.9785 23.3332C41.2969 25.3065 42 27.6266 42 30C42 33.1826 40.7363 36.2348 38.4844 38.4853C36.2344 40.7357 33.1816 42 30 42Z"
              fill="#FFFFFF"
              fill-opacity="1.000000"
              fill-rule="nonzero"
            />
          </svg>