  <svg
            width="20.000000"
            height="18.010986"
            viewBox="0 0 20 18.011"
            fill="none"
            xmlns="http://www.w3.org/2000/svg"
            xmlns:xlink="http://www.w3.org/1999/xlink"
          >
            <desc>Created with Pixso.</desc>
            <defs />
            <path
              id="Vector"
              d="M19.3203 2.05029L13.3203 0.050293L13.25 0.050293C13.2031 0.0456543 13.1562 0.0456543 13.1094 0.050293L12.8789 0.050293L12.75 0.050293L12.6797 0.050293L7 2.00024L1.32031 0.050293C1.16797 0.000732422 1.00781 -0.0124512 0.851562 0.0118408C0.695312 0.0362549 0.546875 0.0974121 0.421875 0.190308C0.289062 0.282349 0.183594 0.403809 0.113281 0.544556C0.0390625 0.685425 0 0.841675 0 1.00024L0 15.0002C0 15.21 0.0664062 15.4144 0.1875 15.585C0.308594 15.7554 0.480469 15.8832 0.679688 15.9503L6.67969 17.9503C6.88281 18.016 7.09766 18.016 7.30078 17.9503L13 16.0503L18.6797 18.0002C18.7852 18.0146 18.8945 18.0146 19 18.0002C19.2109 18.0033 19.4141 17.9364 19.5781 17.8103C19.7109 17.7183 19.8164 17.5968 19.8867 17.4559C19.9609 17.3152 20 17.1589 20 17.0002L20 3.00024C20 2.79065 19.9336 2.58618 19.8125 2.41565C19.6914 2.24524 19.5195 2.11743 19.3203 2.05029ZM6 15.6104L2 14.2803L2 2.39026L6 3.72034L6 15.6104ZM12 14.2803L8 15.6104L8 3.72034L12 2.39026L12 14.2803ZM18 15.6104L14 14.2803L14 2.39026L18 3.72034L18 15.6104Z"
              fill="#FFFFFF"
              fill-opacity="1.000000"
              fill-rule="nonzero"
            />
          </svg>