<svg
            width="50.000000"
            height="50.000000"
            viewBox="0 0 50 50"
            fill="none"
            xmlns="http://www.w3.org/2000/svg"
            xmlns:xlink="http://www.w3.org/1999/xlink"
          >
            <desc>Created with Pixso.</desc>
            <defs />
            <circle
              id="Ellipse 9"
              cx="25.000000"
              cy="25.000000"
              r="25.000000"
              fill="#FFBC57"
              fill-opacity="1.000000"
            />
            <path
              id="Vector"
              d="M24.8008 14C22.4648 14 20.2266 14.9271 18.5781 16.5775C16.9258 18.2278 16 20.4661 16 22.8C16 28.74 23.7539 35.4499 24.0859 35.7359C24.2852 35.9063 24.5391 36 24.8008 36C25.0625 36 25.3164 35.9063 25.5156 35.7359C25.8984 35.4499 33.6016 28.74 33.6016 22.8C33.6016 20.4661 32.6719 18.2278 31.0234 16.5775C29.3711 14.9271 27.1328 14 24.8008 14ZM24.8008 33.4149C22.457 31.2149 18.1992 26.474 18.1992 22.8C18.1992 21.0496 18.8945 19.3708 20.1328 18.1331C21.3711 16.8954 23.0508 16.2 24.8008 16.2C26.5508 16.2 28.2305 16.8954 29.4688 18.1331C30.7031 19.3708 31.3984 21.0496 31.3984 22.8C31.3984 26.474 27.1445 31.226 24.8008 33.4149ZM24.8008 18.4C23.9297 18.4 23.0781 18.6581 22.3555 19.1415C21.6328 19.625 21.0664 20.3122 20.7344 21.1162C20.4023 21.9202 20.3164 22.8048 20.4844 23.6584C20.6562 24.5119 21.0742 25.2959 21.6875 25.9112C22.3047 26.5266 23.0898 26.9456 23.9414 27.1154C24.7969 27.2852 25.6797 27.1981 26.4844 26.865C27.2891 26.532 27.9766 25.968 28.457 25.2445C28.9414 24.5209 29.1992 23.6702 29.1992 22.8C29.1992 21.633 28.7383 20.5139 27.9102 19.6887C27.0859 18.8636 25.9688 18.4 24.8008 18.4ZM24.8008 25C24.3633 25 23.9414 24.8709 23.5781 24.6292C23.2148 24.3875 22.9336 24.0439 22.7656 23.6419C22.6016 23.2399 22.5586 22.7975 22.6406 22.3708C22.7266 21.944 22.9375 21.552 23.2461 21.2444C23.5508 20.9367 23.9453 20.7271 24.3711 20.6422C24.7969 20.5574 25.2383 20.6009 25.6406 20.7675C26.043 20.934 26.3867 21.2159 26.6289 21.5777C26.8711 21.9395 27 22.3649 27 22.8C27 23.3835 26.7695 23.943 26.3555 24.3556C25.9414 24.7682 25.3828 25 24.8008 25Z"
              fill="#FFFFFF"
              fill-opacity="1.000000"
              fill-rule="nonzero"
            />
          </svg>