          <svg
            width="60.000000"
            height="60.000000"
            viewBox="0 0 60 60"
            fill="none"
            xmlns="http://www.w3.org/2000/svg"
            xmlns:xlink="http://www.w3.org/1999/xlink"
          >
            <desc>Created with Pixso.</desc>
            <defs />
            <circle
              id="bg"
              cx="30.000000"
              cy="30.000000"
              r="30.000000"
              fill="#FFBC57"
              fill-opacity="1.000000"
            />
            <path
              id="Vector"
              d="M36.9395 23.3295L28.4375 31.8611L25.1113 28.5132C24.7734 28.1743 24.3145 27.9839 23.8359 27.9839C23.3574 27.9839 22.8984 28.1743 22.5586 28.5132C22.2207 28.8522 22.0312 29.3119 22.0312 29.7911C22.0312 30.0286 22.0781 30.2635 22.168 30.4828C22.2578 30.702 22.3926 30.9012 22.5586 31.0691L27.1602 35.6769C27.3281 35.8456 27.5273 35.9795 27.7461 36.0709C27.9648 36.1622 28.1992 36.2094 28.4375 36.2094C28.6738 36.2094 28.9102 36.1622 29.1289 36.0709C29.3477 35.9795 29.5469 35.8456 29.7129 35.6769L39.4922 25.8854C39.6582 25.7175 39.791 25.5183 39.8828 25.2991C39.9727 25.0797 40.0195 24.8447 40.0195 24.6074C40.0195 24.3701 39.9727 24.135 39.8828 23.9158C39.791 23.6965 39.6582 23.4973 39.4922 23.3295C39.3242 23.1616 39.125 23.0286 38.9062 22.9377C38.6875 22.8468 38.4531 22.8002 38.2148 22.8002C37.9785 22.8002 37.7441 22.8468 37.5254 22.9377C37.3047 23.0286 37.1074 23.1616 36.9395 23.3295ZM31.0254 11C28.6641 11 26.3281 11.4656 24.1465 12.3701C21.9668 13.2747 19.9844 14.6005 18.3145 16.2719C14.9453 19.6473 13.0508 24.2255 13.0508 28.9991C13.0352 33.1555 14.4727 37.1862 17.1133 40.3927L13.5176 43.9926C13.2695 44.2456 13.0996 44.567 13.0332 44.9163C12.9648 45.2654 13.002 45.6267 13.1406 45.9545C13.2891 46.2783 13.5312 46.5504 13.8359 46.7363C14.1406 46.9222 14.4922 47.0134 14.8477 46.9984L31.0254 46.9984C35.793 46.9984 40.3652 45.1021 43.7344 41.7266C47.1055 38.3511 49 33.7729 49 28.9991C49 24.2255 47.1055 19.6473 43.7344 16.2719C40.3652 12.8964 35.793 11 31.0254 11ZM31.0254 43.3986L19.1797 43.3986L20.8516 41.7246C21.1855 41.3875 21.375 40.9312 21.375 40.4557C21.375 39.9802 21.1855 39.524 20.8516 39.1868C18.498 36.8325 17.0332 33.734 16.7051 30.4189C16.377 27.104 17.207 23.7776 19.0527 21.0067C20.8984 18.2357 23.6484 16.1917 26.8301 15.2225C30.0137 14.2535 33.4336 14.4196 36.5078 15.6923C39.582 16.965 42.1211 19.2657 43.6914 22.2025C45.2617 25.1393 45.7656 28.5304 45.1191 31.7981C44.4727 35.0658 42.7148 38.0079 40.1445 40.1232C37.5742 42.2384 34.3516 43.396 31.0254 43.3986Z"
              fill="#FFFFFF"
              fill-opacity="1.000000"
              fill-rule="nonzero"
            />
          </svg>