              <svg
                width="24.000000"
                height="24.000000"
                viewBox="0 0 24 24"
                fill="none"
                xmlns="http://www.w3.org/2000/svg"
                xmlns:xlink="http://www.w3.org/1999/xlink"
              >
                <desc>Created with Pixso.</desc>
                <defs />
                <path
                  id="Vector"
                  d="M14.3975 19.2156C14.7168 19.2156 15.0225 19.0897 15.249 18.8654C15.4746 18.641 15.6016 18.3368 15.6016 18.0196L15.6016 15.6274C15.6016 15.3102 15.4746 15.006 15.249 14.7817C15.0225 14.5574 14.7168 14.4313 14.3975 14.4313C14.0771 14.4313 13.7715 14.5574 13.5459 14.7817C13.3193 15.006 13.1924 15.3102 13.1924 15.6274L13.1924 18.0196C13.1924 18.3368 13.3193 18.641 13.5459 18.8654C13.7715 19.0897 14.0771 19.2156 14.3975 19.2156ZM9.58008 19.2156C9.89941 19.2156 10.2051 19.0897 10.4316 18.8654C10.6572 18.641 10.7842 18.3368 10.7842 18.0196L10.7842 15.6274C10.7842 15.3102 10.6572 15.006 10.4316 14.7817C10.2051 14.5574 9.89941 14.4313 9.58008 14.4313C9.26074 14.4313 8.9541 14.5574 8.72852 14.7817C8.50195 15.006 8.375 15.3102 8.375 15.6274L8.375 18.0196C8.375 18.3368 8.50195 18.641 8.72852 18.8654C8.9541 19.0897 9.26074 19.2156 9.58008 19.2156ZM20.4189 4.86273L18.7568 4.86273L16.6729 0.736267C16.6094 0.584412 16.5146 0.447266 16.3955 0.333374C16.2764 0.219421 16.1348 0.131226 15.9785 0.0741577C15.8232 0.0171509 15.6582 -0.00744629 15.4932 0.00195312C15.3271 0.0113525 15.166 0.0544434 15.0176 0.128662C14.8701 0.202881 14.7393 0.30658 14.6338 0.433289C14.5283 0.559937 14.4502 0.706909 14.4043 0.86499C14.3584 1.02301 14.3457 1.18878 14.3672 1.35181C14.3887 1.51489 14.4443 1.67181 14.5293 1.81274L16.0586 4.86273L7.91797 4.86273L9.44727 1.81274C9.56445 1.53394 9.57031 1.22156 9.46484 0.938293C9.35938 0.655029 9.15039 0.421814 8.87891 0.285583C8.60742 0.149292 8.29395 0.119995 8.00195 0.203613C7.70996 0.287231 7.45996 0.477539 7.30371 0.736267L5.21973 4.86273L3.55762 4.86273C2.70703 4.87561 1.8877 5.18658 1.24414 5.74084C0.601562 6.29504 0.176758 7.05695 0.0439453 7.89215C-0.0888672 8.72736 0.0800781 9.58221 0.520508 10.3059C0.960938 11.0296 1.64355 11.5757 2.4502 11.8478L3.34082 20.7706C3.43066 21.6587 3.85156 22.4818 4.51953 23.0789C5.1875 23.676 6.05566 24.0045 6.9541 23.9999L17.0469 23.9999C17.9453 24.0045 18.8135 23.676 19.4814 23.0789C20.1494 22.4818 20.5693 21.6587 20.6592 20.7706L21.5508 11.8478C22.3584 11.5749 23.043 11.0268 23.4824 10.3007C23.9229 9.57458 24.0898 8.71722 23.9541 7.88062C23.8184 7.04395 23.3887 6.28198 22.7422 5.72961C22.0947 5.17725 21.2715 4.87018 20.4189 4.86273ZM18.2393 20.5313C18.209 20.8274 18.0693 21.1017 17.8467 21.3008C17.623 21.4998 17.334 21.6093 17.0342 21.6078L6.94238 21.6078C6.64258 21.6093 6.35352 21.4998 6.13086 21.3008C5.9082 21.1017 5.76758 20.8274 5.73828 20.5313L4.88281 12.0392L19.0938 12.0392L18.2393 20.5313ZM20.4189 9.64703L3.55762 9.64703C3.23828 9.64703 2.93262 9.52106 2.70605 9.29669C2.48047 9.07239 2.35352 8.76819 2.35352 8.45099C2.35352 8.13373 2.48047 7.82953 2.70605 7.60522C2.93262 7.38092 3.23828 7.25488 3.55762 7.25488L20.4189 7.25488C20.7383 7.25488 21.0439 7.38092 21.2705 7.60522C21.4961 7.82953 21.623 8.13373 21.623 8.45099C21.623 8.76819 21.4961 9.07239 21.2705 9.29669C21.0439 9.52106 20.7383 9.64703 20.4189 9.64703Z"
                  fill="#FFFFFF"
                  fill-opacity="1.000000"
                  fill-rule="nonzero"
                />
              </svg>