<svg
          width="54.000000"
          height="54.000000"
          viewBox="0 0 54 54"
          fill="none"
          xmlns="http://www.w3.org/2000/svg"
          xmlns:xlink="http://www.w3.org/1999/xlink"
        >
          <desc>Created with Pixso.</desc>
          <defs />
          <path
            id="Vector"
            d="M22.5566 0.0560303C9.74805 2.24597 0 13.4019 0 26.8335C0 41.8376 12.1641 54 27.166 54C40.5996 54 51.7539 44.2512 53.9434 31.4426C54.375 28.9203 52.2598 26.8323 49.7012 26.8323L31.7988 26.8323C29.2402 26.8323 27.166 24.7582 27.166 22.2L27.166 4.29932C27.166 1.74109 25.0781 -0.374756 22.5566 0.0560303Z"
            fill="#FFFFFF"
            fill-opacity="1.000000"
            fill-rule="nonzero"
          />
          <path
            id="Vector"
            d="M31.6055 7.31604L31.6055 19.2942C31.6055 21.0059 32.9922 22.3932 34.7051 22.3932L46.6836 22.3932C48.3945 22.3932 49.8086 20.9954 49.5215 19.3081C48.2285 11.7411 42.2559 5.7688 34.6895 4.47522C33.0039 4.18909 31.6055 5.60437 31.6055 7.31604Z"
            fill="#FFFFFF"
            fill-opacity="1.000000"
            fill-rule="nonzero"
          />
        </svg>