<svg
              width="10.485840"
              height="10.246582"
              viewBox="0 0 10.4858 10.2466"
              fill="none"
              xmlns="http://www.w3.org/2000/svg"
              xmlns:xlink="http://www.w3.org/1999/xlink"
            >
              <desc>Created with Pixso.</desc>
              <defs />
              <path
                id="Vector"
                d="M5.9502 5.95081L10.1899 1.71078C10.2837 1.61783 10.3584 1.50723 10.4087 1.38538C10.4595 1.26352 10.4858 1.13281 10.4858 1.00079C10.4858 0.868774 10.4595 0.738068 10.4087 0.616211C10.3584 0.494354 10.2837 0.383759 10.1899 0.290802C10.0024 0.104553 9.74902 0 9.48486 0C9.2207 0 8.96729 0.104553 8.78027 0.290802L5.24023 3.83078L1.7002 0.290802C1.5127 0.104553 1.25928 0 0.995117 0C0.730957 0 0.477539 0.104553 0.290039 0.290802C0.197266 0.384247 0.124023 0.495056 0.0742188 0.616882C0.0244141 0.738708 -0.000488281 0.869171 0 1.00079C-0.000488281 1.13239 0.0244141 1.26285 0.0742188 1.3847C0.124023 1.50653 0.197266 1.61734 0.290039 1.71078L4.53027 5.95081C4.62305 6.04453 4.7334 6.11893 4.85547 6.16968C4.97754 6.22046 5.10791 6.24658 5.24023 6.24658C5.37207 6.24658 5.50293 6.22046 5.62451 6.16968C5.74658 6.11893 5.85693 6.04453 5.9502 5.95081Z"
                fill="#535353"
                fill-opacity="1.000000"
                fill-rule="nonzero"
              />
              <path
                id="Vector"
                d="M5.9502 4.29578L10.1899 8.5358C10.2837 8.62875 10.3584 8.73935 10.4087 8.86121C10.4595 8.98306 10.4858 9.11377 10.4858 9.24579C10.4858 9.37781 10.4595 9.50851 10.4087 9.63037C10.3584 9.75223 10.2837 9.86282 10.1899 9.95578C10.0024 10.142 9.74902 10.2466 9.48486 10.2466C9.2207 10.2466 8.96729 10.142 8.78027 9.95578L5.24023 6.4158L1.7002 9.95578C1.5127 10.142 1.25928 10.2466 0.995117 10.2466C0.730957 10.2466 0.477539 10.142 0.290039 9.95578C0.197266 9.86234 0.124023 9.75153 0.0742188 9.6297C0.0244141 9.50787 -0.000488281 9.37741 0 9.24579C-0.000488281 9.1142 0.0244141 8.98373 0.0742188 8.86188C0.124023 8.74005 0.197266 8.62924 0.290039 8.5358L4.53027 4.29578C4.62305 4.20206 4.7334 4.12766 4.85547 4.0769C4.97754 4.02612 5.10791 4 5.24023 4C5.37207 4 5.50293 4.02612 5.62451 4.0769C5.74658 4.12766 5.85693 4.20206 5.9502 4.29578Z"
                fill="#535353"
                fill-opacity="1.000000"
                fill-rule="nonzero"
              />
            </svg>