              <svg
                width="38.171875"
                height="40.000000"
                viewBox="0 0 38.1719 40"
                fill="none"
                xmlns="http://www.w3.org/2000/svg"
                xmlns:xlink="http://www.w3.org/1999/xlink"
              >
                <desc>Created with Pixso.</desc>
                <defs />
                <path
                  id="Vector"
                  d="M26.4805 22.2814C26.2871 22.2814 26.2871 22.0897 26.0957 22.0897C28.9707 19.9814 30.5039 16.723 30.5039 13.0813C30.5039 12.698 30.5039 12.3146 30.5039 11.9313L30.5039 11.7396L31.0801 7.13965C31.4629 4.07294 29.3555 1.38959 26.4805 0.814575L24.7539 0.431274C20.9219 -0.143738 17.0879 -0.143738 13.2539 0.431274L11.7207 0.814575C8.6543 1.38959 6.54688 4.07294 6.92969 7.13965L7.50391 11.7396L7.50391 11.9313C7.50391 12.3146 7.50391 12.698 7.50391 13.0813C7.50391 16.5314 9.03711 19.9814 11.9121 22.0897C11.7207 22.0897 11.7207 22.2814 11.5293 22.2814C5.20508 24.9647 0.796875 30.9064 0.0292969 37.8065C-0.162109 38.7648 0.603516 39.7231 1.75391 39.9148C2.9043 40.1065 35.2969 39.9148 36.2539 39.9148L36.4453 39.9148C37.4043 39.7231 38.1719 38.7648 38.1719 37.8065C37.2129 30.9064 32.8047 24.9647 26.4805 22.2814ZM19.0039 28.2231L15.7461 24.9647C17.8535 24.5814 19.9629 24.5814 22.0703 24.9647L19.0039 28.2231ZM19.0039 20.748C14.7871 20.748 11.5293 17.4897 11.3379 13.273L26.6719 13.273C26.4805 17.4897 23.2207 20.748 19.0039 20.748Z"
                  fill="#535353"
                  fill-opacity="1.000000"
                  fill-rule="nonzero"
                />
              </svg>