 <svg
            width="50.000000"
            height="50.000000"
            viewBox="0 0 50 50"
            fill="none"
            xmlns="http://www.w3.org/2000/svg"
            xmlns:xlink="http://www.w3.org/1999/xlink"
          >
            <desc>Created with Pixso.</desc>
            <defs />
            <circle
              id="Ellipse 9"
              cx="25.000000"
              cy="25.000000"
              r="25.000000"
              fill="#FFBC57"
              fill-opacity="1.000000"
            />
            <path
              id="Vector"
              d="M32 17L18 17C17.2031 17 16.4414 17.3161 15.8789 17.8787C15.3164 18.4413 15 19.2043 15 20L15 30C15 30.7957 15.3164 31.5587 15.8789 32.1213C16.4414 32.6839 17.2031 33 18 33L32 33C32.7969 33 33.5586 32.6839 34.1211 32.1213C34.6836 31.5587 35 30.7957 35 30L35 20C35 19.2043 34.6836 18.4413 34.1211 17.8787C33.5586 17.3161 32.7969 17 32 17ZM18 19L32 19C32.2656 19 32.5195 19.1053 32.707 19.2929C32.8945 19.4804 33 19.7348 33 20L25 24.88L17 20C17 19.7348 17.1055 19.4804 17.293 19.2929C17.4805 19.1053 17.7344 19 18 19ZM33 30C33 30.2652 32.8945 30.5196 32.707 30.7071C32.5195 30.8947 32.2656 31 32 31L18 31C17.7344 31 17.4805 30.8947 17.293 30.7071C17.1055 30.5196 17 30.2652 17 30L17 22.28L24.4805 26.85C24.6328 26.9378 24.8047 26.984 24.9805 26.984C25.1562 26.984 25.3281 26.9378 25.4805 26.85L33 22.28L33 30Z"
              fill="#FFFFFF"
              fill-opacity="1.000000"
              fill-rule="nonzero"
            />
          </svg>