              <svg
                width="40.000000"
                height="40.000061"
                viewBox="0 0 40 40.0001"
                fill="none"
                xmlns="http://www.w3.org/2000/svg"
                xmlns:xlink="http://www.w3.org/1999/xlink"
              >
                <desc>Created with Pixso.</desc>
                <defs />
                <path
                  id="Vector"
                  d="M16.3848 12.1264C16.3848 11.2591 16.3672 10.3918 16.3848 9.51801C16.3926 9.36865 16.3711 9.21906 16.3164 9.07916C16.2637 8.93927 16.1816 8.81238 16.0762 8.70685C15.9688 8.60138 15.8418 8.51965 15.7012 8.46729C15.5625 8.41486 15.4121 8.39294 15.2637 8.40295C14.248 8.42902 13.2324 8.40295 12.2148 8.40295C12.1055 8.40338 11.9961 8.39026 11.8887 8.36377C11.8418 8.35767 11.7988 8.33978 11.7617 8.31183C11.7246 8.28387 11.6953 8.24683 11.6758 8.20422C11.6582 8.16162 11.6504 8.11493 11.6543 8.0686C11.6602 8.02234 11.6758 7.97803 11.7031 7.93994C11.75 7.86407 11.8066 7.79492 11.873 7.73456L19.2695 0.320251C19.3613 0.21936 19.4727 0.138794 19.5977 0.0836182C19.7227 0.0285034 19.8574 0 19.9922 0C20.1289 0 20.2637 0.0285034 20.3887 0.0836182C20.5137 0.138794 20.625 0.21936 20.7168 0.320251L28.1016 7.7052C28.2383 7.8421 28.3965 7.99536 28.3066 8.20728C28.2148 8.41925 27.9805 8.40619 27.8008 8.40942C26.8223 8.40942 25.8711 8.43225 24.9082 8.40942C24.7559 8.39758 24.6016 8.41931 24.457 8.47302C24.3105 8.52679 24.1797 8.61127 24.0723 8.7207C23.9629 8.83014 23.8789 8.96191 23.8262 9.10687C23.7734 9.25189 23.752 9.40662 23.7656 9.56042C23.7656 11.3015 23.7656 13.0426 23.7656 14.7771C23.7734 14.9256 23.752 15.0744 23.6992 15.2135C23.6465 15.3526 23.5645 15.4791 23.459 15.5844C23.3555 15.6898 23.2285 15.7716 23.0898 15.8248C22.9512 15.8777 22.8008 15.9008 22.6523 15.8923C20.918 15.8726 19.1855 15.8923 17.4375 15.8923C17.293 15.9077 17.1445 15.8904 17.0078 15.8417C16.8711 15.7932 16.7461 15.7144 16.6426 15.6113C16.5391 15.508 16.4609 15.3831 16.4121 15.2456C16.3633 15.108 16.3457 14.9614 16.3613 14.8162L16.3613 12.1264L16.3848 12.1264ZM16.3848 27.8614L16.3848 25.015C16.373 24.8746 16.3945 24.7338 16.4434 24.6019C16.4922 24.47 16.5703 24.3504 16.6699 24.251C16.7695 24.1516 16.8887 24.075 17.0215 24.0261C17.1523 23.9774 17.293 23.9578 17.4336 23.9684C19.2051 23.9684 20.9707 23.9684 22.7422 23.9684C22.877 23.9675 23.0117 23.9937 23.1367 24.045C23.2617 24.0964 23.377 24.1722 23.4727 24.268C23.5684 24.3639 23.6445 24.4778 23.6973 24.6031C23.748 24.7286 23.7754 24.863 23.7754 24.9988C23.7578 26.8702 23.7754 28.745 23.7754 30.6165C23.7617 30.7735 23.7812 30.9314 23.834 31.0801C23.8848 31.2289 23.9668 31.3652 24.0742 31.4805C24.168 31.5773 24.2793 31.6539 24.4043 31.7055C24.5273 31.7571 24.6602 31.7827 24.7949 31.7805L27.5859 31.7805C27.7051 31.7789 27.8242 31.792 27.9414 31.8196C27.9863 31.8256 28.0273 31.843 28.0645 31.87C28.0996 31.897 28.1289 31.9329 28.1465 31.974C28.166 32.0153 28.1719 32.0604 28.168 32.1052C28.1641 32.1501 28.1484 32.1932 28.123 32.2303C28.0762 32.3207 28.0137 32.4033 27.9414 32.475L20.7109 39.6871C20.623 39.7819 20.5176 39.8583 20.3984 39.9119C20.2812 39.9654 20.1543 39.9952 20.0254 39.9995C19.8965 40.0037 19.7676 39.9824 19.6465 39.9365C19.5254 39.8907 19.416 39.8215 19.3223 39.7327C19.2754 39.6904 19.2305 39.648 19.1855 39.6024L13.2578 33.665C12.8516 33.2585 12.4453 32.8488 12.041 32.4359C11.9141 32.3054 11.7676 32.1653 11.8535 31.9598C11.9375 31.7544 12.1426 31.7576 12.3262 31.7576L15.3223 31.7576C15.4629 31.7682 15.6055 31.7482 15.7383 31.699C15.873 31.6498 15.9941 31.5725 16.0957 31.4724C16.1953 31.3723 16.2754 31.2516 16.3242 31.1185C16.375 30.9855 16.3965 30.8433 16.3867 30.7012C16.3867 29.7525 16.3867 28.8036 16.3867 27.8582L16.3848 27.8614ZM8.31836 19.9874C8.31836 22.5392 8.31836 25.09 8.31836 27.6396C8.32227 27.7703 8.30664 27.9006 8.27734 28.0276C8.27148 28.0723 8.25391 28.1145 8.22656 28.1503C8.19922 28.186 8.16211 28.2141 8.12109 28.2319C8.08008 28.2495 8.03516 28.2562 7.99023 28.2514C7.94531 28.2464 7.90234 28.23 7.86523 28.2037C7.76172 28.1453 7.66602 28.0717 7.58203 27.9852L0.345703 20.7504C0.234375 20.6553 0.146484 20.5372 0.0878906 20.4047C0.0273438 20.2721 -0.00195312 20.1281 0 19.9828C0.00195312 19.8375 0.0351562 19.6943 0.0976562 19.5632C0.162109 19.4323 0.251953 19.3167 0.365234 19.2244L7.61719 11.9731C7.75781 11.8329 7.91406 11.6797 8.12305 11.771C8.33203 11.8623 8.31836 12.0742 8.31836 12.2633L8.31836 19.9874ZM31.8457 19.9874C31.8457 17.5159 31.8457 15.0445 31.8457 12.5731C31.8418 12.4194 31.8594 12.2659 31.8945 12.1166C31.9023 12.0768 31.9199 12.0396 31.9453 12.0082C31.9727 11.9767 32.0039 11.9521 32.043 11.9363C32.0801 11.9205 32.1191 11.9141 32.1602 11.9177C32.2012 11.9213 32.2402 11.9348 32.2734 11.9568C32.3711 12.0035 32.459 12.0663 32.5352 12.1427C34.9258 14.5338 37.3164 16.9193 39.707 19.2994C39.8867 19.4754 39.9902 19.7137 40 19.9651C40.0078 20.2165 39.9199 20.4615 39.752 20.6492C39.707 20.7014 39.6602 20.7502 39.6113 20.7993L34.9766 25.4225L32.5508 27.8419C32.4102 27.982 32.2637 28.1353 32.0488 28.0472C31.834 27.9592 31.8633 27.757 31.8496 27.5745C31.8496 27.506 31.8496 27.4375 31.8496 27.369C31.8496 24.9085 31.8496 22.4479 31.8496 19.9874L31.8457 19.9874Z"
                  fill="#FF090B"
                  fill-opacity="1.000000"
                  fill-rule="evenodd"
                />
              </svg>