          <svg
            width="80.000000"
            height="80.000000"
            viewBox="0 0 80 80"
            fill="none"
            xmlns="http://www.w3.org/2000/svg"
            xmlns:xlink="http://www.w3.org/1999/xlink"
          >
            <desc>Created with Pixso.</desc>
            <defs />
            <circle
              id="Ellipse 14"
              cx="40.000000"
              cy="40.000000"
              r="40.000000"
              fill="#FFFFFF"
              fill-opacity="1.000000"
            />
            <path
              id="Vector"
              d="M58.1816 49.3409L21.8184 49.3409C21.3359 49.3409 20.873 49.5325 20.5322 49.8734C20.1914 50.2144 20 50.6769 20 51.1591C20 51.6414 20.1914 52.1038 20.5322 52.4447C20.873 52.7858 21.3359 52.9773 21.8184 52.9773L58.1816 52.9773C58.6641 52.9773 59.127 52.7858 59.4678 52.4447C59.8086 52.1038 60 51.6414 60 51.1591C60 50.6769 59.8086 50.2144 59.4678 49.8734C59.127 49.5325 58.6641 49.3409 58.1816 49.3409ZM58.1816 56.6136L21.8184 56.6136C21.3359 56.6136 20.873 56.8052 20.5322 57.1461C20.1914 57.4872 20 57.9496 20 58.4318C20 58.9141 20.1914 59.3765 20.5322 59.7175C20.873 60.0585 21.3359 60.25 21.8184 60.25L58.1816 60.25C58.6641 60.25 59.127 60.0585 59.4678 59.7175C59.8086 59.3765 60 58.9141 60 58.4318C60 57.9496 59.8086 57.4872 59.4678 57.1461C59.127 56.8052 58.6641 56.6136 58.1816 56.6136ZM29.0908 31.1591C28.7314 31.1591 28.3799 31.2657 28.0811 31.4655C27.7822 31.6653 27.5488 31.9492 27.4111 32.2815C27.2734 32.6138 27.2373 32.9792 27.3076 33.332C27.3779 33.6847 27.5508 34.0087 27.8057 34.2629C28.0596 34.5172 28.3838 34.6903 28.7363 34.7605C29.0889 34.8307 29.4541 34.7947 29.7871 34.6571C30.1191 34.5194 30.4033 34.2864 30.6025 33.9874C30.8027 33.6884 30.9092 33.3369 30.9092 32.9773C30.9092 32.4951 30.7178 32.0326 30.377 31.6917C30.0352 31.3507 29.5732 31.1591 29.0908 31.1591ZM54.5459 20.25L25.4541 20.25C24.0078 20.25 22.6201 20.8247 21.5977 21.8477C20.5742 22.8705 20 24.2579 20 25.7046L20 40.25C20 41.6967 20.5742 43.084 21.5977 44.1069C22.6201 45.1299 24.0078 45.7046 25.4541 45.7046L54.5459 45.7046C55.9922 45.7046 57.3799 45.1299 58.4023 44.1069C59.4258 43.084 60 41.6967 60 40.25L60 25.7046C60 24.2579 59.4258 22.8705 58.4023 21.8477C57.3799 20.8247 55.9922 20.25 54.5459 20.25ZM56.3633 40.25C56.3633 40.7322 56.1719 41.1947 55.8311 41.5356C55.4902 41.8766 55.0273 42.0682 54.5459 42.0682L25.4541 42.0682C24.9727 42.0682 24.5098 41.8766 24.1689 41.5356C23.8281 41.1947 23.6367 40.7322 23.6367 40.25L23.6367 25.7046C23.6367 25.2223 23.8281 24.7599 24.1689 24.4189C24.5098 24.0779 24.9727 23.8864 25.4541 23.8864L54.5459 23.8864C55.0273 23.8864 55.4902 24.0779 55.8311 24.4189C56.1719 24.7599 56.3633 25.2223 56.3633 25.7046L56.3633 40.25ZM40 27.5227C38.9209 27.5227 37.8662 27.8427 36.9697 28.442C36.0723 29.0414 35.373 29.8932 34.9609 30.8899C34.5479 31.8866 34.4395 32.9833 34.6504 34.0414C34.8604 35.0995 35.3799 36.0714 36.1426 36.8342C36.9062 37.597 37.8779 38.1166 38.9355 38.327C39.9941 38.5375 41.0908 38.4294 42.0869 38.0166C43.084 37.6038 43.9355 36.9047 44.5352 36.0077C45.1348 35.1107 45.4541 34.056 45.4541 32.9773C45.4541 31.5306 44.8799 30.1433 43.8574 29.1204C42.834 28.0974 41.4463 27.5227 40 27.5227ZM40 34.7954C39.6406 34.7954 39.2891 34.6888 38.9902 34.489C38.6904 34.2893 38.458 34.0052 38.3203 33.6731C38.1826 33.3408 38.1465 32.9752 38.2168 32.6226C38.2871 32.2699 38.46 31.9459 38.7139 31.6917C38.9688 31.4374 39.293 31.2642 39.6455 31.194C39.998 31.1239 40.3633 31.1599 40.6953 31.2975C41.0283 31.4351 41.3115 31.6681 41.5117 31.9672C41.7119 32.2661 41.8184 32.6177 41.8184 32.9773C41.8184 33.4595 41.627 33.922 41.2861 34.2629C40.9443 34.6039 40.4824 34.7954 40 34.7954ZM50.9092 31.1591C50.5498 31.1591 50.1982 31.2657 49.8994 31.4655C49.5996 31.6653 49.3672 31.9492 49.2295 32.2815C49.0918 32.6138 49.0557 32.9792 49.126 33.332C49.1963 33.6847 49.3691 34.0087 49.623 34.2629C49.8779 34.5172 50.2021 34.6903 50.5547 34.7605C50.9072 34.8307 51.2725 34.7947 51.6045 34.6571C51.9375 34.5194 52.2207 34.2864 52.4209 33.9874C52.6211 33.6884 52.7275 33.3369 52.7275 32.9773C52.7275 32.4951 52.5361 32.0326 52.1943 31.6917C51.8535 31.3507 51.3916 31.1591 50.9092 31.1591Z"
              fill="#FFBC57"
              fill-opacity="1.000000"
              fill-rule="nonzero"
            />
          </svg>