            <svg
              width="26.664062"
              height="26.674805"
              viewBox="0 0 26.6641 26.6748"
              fill="none"
              xmlns="http://www.w3.org/2000/svg"
              xmlns:xlink="http://www.w3.org/1999/xlink"
            >
              <desc>Created with Pixso.</desc>
              <defs />
              <path
                id="Vector"
                d="M25.5312 1.15479C25.0195 0.63562 24.375 0.271118 23.668 0.103638C22.9609 -0.0639648 22.2188 -0.02771 21.5312 0.20813L2.66406 6.51477C1.90234 6.76392 1.23828 7.24304 0.761719 7.88611C0.285156 8.52917 0.0195312 9.30432 0 10.1049C-0.015625 10.9053 0.214844 11.6914 0.664062 12.3547C1.11328 13.0182 1.75391 13.526 2.50391 13.8081L9.49219 16.4749C9.64844 16.5356 9.79297 16.6287 9.91406 16.7479C10.0391 16.8672 10.1328 17.0103 10.1953 17.1681L12.8633 24.1682C13.1367 24.9069 13.6289 25.5438 14.2734 25.9924C14.9219 26.4409 15.6914 26.6792 16.4766 26.6748L16.5703 26.6748C17.3711 26.6603 18.1484 26.3953 18.793 25.917C19.4336 25.4388 19.9141 24.7714 20.1562 24.0082L26.4648 5.11487C26.6914 4.43335 26.7266 3.70142 26.5625 3.00159C26.3984 2.30176 26.0391 1.66211 25.5312 1.15479ZM23.9961 4.27478L17.625 23.1815C17.5508 23.4208 17.4023 23.6301 17.1992 23.7788C17 23.9276 16.7539 24.0079 16.5039 24.0082C16.2539 24.0122 16.0117 23.9404 15.8047 23.8022C15.5977 23.6642 15.4375 23.4662 15.3438 23.2349L12.6758 16.2349C12.4844 15.7262 12.1875 15.2639 11.8008 14.8781C11.418 14.4921 10.957 14.1912 10.4492 13.9949L3.44922 11.3281C3.21484 11.2416 3.01172 11.0831 2.87109 10.8749C2.73047 10.6667 2.65625 10.4196 2.66406 10.1681C2.66406 9.91772 2.74609 9.67383 2.89453 9.47229C3.04297 9.27075 3.25 9.12219 3.49219 9.0481L22.3984 2.74146C22.6133 2.65295 22.8516 2.62927 23.082 2.67322C23.3125 2.71716 23.5234 2.8269 23.6953 2.98901C23.8633 3.15125 23.9844 3.35901 24.0352 3.58716C24.0898 3.81531 24.0781 4.0542 23.9961 4.27478Z"
                fill="#FFBC57"
                fill-opacity="1.000000"
                fill-rule="nonzero"
              />
            </svg>