      <svg
        width="80.000000"
        height="80.000000"
        viewBox="0 0 80 80"
        fill="none"
        xmlns="http://www.w3.org/2000/svg"
        xmlns:xlink="http://www.w3.org/1999/xlink"
      >
        <desc>Created with Pixso.</desc>
        <defs />
        <circle
          id="Ellipse 14"
          cx="40.000000"
          cy="40.000000"
          r="40.000000"
          fill="#FFFFFF"
          fill-opacity="1.000000"
        />
        <path
          id="Vector"
          d="M42.8291 29.4788C42.6211 29.6849 42.4561 29.9303 42.3428 30.2007C42.2305 30.4711 42.1729 30.761 42.1729 31.0538C42.1729 31.3468 42.2305 31.6367 42.3428 31.9071C42.4561 32.1775 42.6211 32.4229 42.8291 32.629L47.0889 36.8887C47.2949 37.0967 47.54 37.2617 47.8105 37.3743C48.0811 37.4869 48.3711 37.5449 48.6641 37.5449C48.9561 37.5449 49.2461 37.4869 49.5166 37.3743C49.7871 37.2617 50.0322 37.0967 50.2393 36.8887L59.29 27.837C59.5332 27.6399 59.7314 27.3937 59.8721 27.1146C60.0127 26.8356 60.0928 26.5299 60.1074 26.2177C60.1221 25.9054 60.0703 25.5936 59.9561 25.3027C59.8418 25.0118 59.667 24.7484 59.4434 24.5298C59.2197 24.3112 58.9531 24.1422 58.6592 24.0339C58.3662 23.9257 58.0537 23.8806 57.7422 23.9017C57.4297 23.9229 57.126 24.0095 56.8496 24.1564C56.5742 24.3031 56.332 24.5065 56.1406 24.7532L48.6641 32.1853L45.9795 29.4788C45.7734 29.2708 45.5273 29.1057 45.2568 28.993C44.9873 28.8805 44.6973 28.8225 44.4043 28.8225C44.1113 28.8225 43.8213 28.8805 43.5508 28.993C43.2803 29.1057 43.0352 29.2708 42.8291 29.4788ZM57.5156 37.2659C56.9307 37.3167 56.3896 37.5974 56.0107 38.0465C55.6328 38.4957 55.4473 39.0765 55.4971 39.6619C55.5078 39.8688 55.5078 40.0762 55.4971 40.2831C55.4971 44.4019 53.8604 48.3519 50.9482 51.2643C48.0361 54.1768 44.0859 55.8129 39.9668 55.8129L27.5654 55.8129L28.9854 54.4152C29.3984 53.9995 29.6299 53.4373 29.6299 52.8512C29.6299 52.265 29.3984 51.7028 28.9854 51.2871C27.001 49.3136 25.5869 46.8408 24.8926 44.1299C24.1982 41.4189 24.249 38.5708 25.04 35.8865C25.8311 33.2023 27.333 30.7815 29.3857 28.8804C31.4395 26.9791 33.9688 25.6682 36.7061 25.0859C38.7559 24.676 40.8672 24.676 42.918 25.0859C43.209 25.1443 43.5088 25.1445 43.8008 25.0869C44.0918 25.0293 44.3691 24.9148 44.6162 24.75C44.8633 24.5851 45.0762 24.3733 45.2412 24.1263C45.4062 23.8795 45.5215 23.6025 45.5801 23.3112C45.6377 23.0198 45.6387 22.7198 45.5811 22.4283C45.5234 22.137 45.4082 21.8596 45.2441 21.6124C45.0791 21.3652 44.8672 21.153 44.6201 20.9875C44.373 20.8223 44.0967 20.7072 43.8047 20.6489C41.1621 20.1171 38.4395 20.1171 35.7959 20.6489C31.3174 21.6266 27.3076 24.1074 24.4346 27.6793C21.5605 31.2511 19.9961 35.6987 20 40.2831C20.0186 44.8228 21.584 49.2205 24.4375 52.7513L20.6436 56.4563C20.3359 56.7683 20.127 57.1644 20.0439 57.5948C19.9609 58.0251 20.0078 58.4705 20.1777 58.8745C20.3438 59.2797 20.627 59.6265 20.9902 59.8712C21.3525 60.116 21.7803 60.2478 22.2188 60.25L39.9668 60.25C45.2627 60.25 50.3408 58.1464 54.0859 54.4019C57.8301 50.6572 59.9336 45.5786 59.9336 40.2831C59.9336 39.9503 59.9336 39.6396 59.9336 39.3069C59.9111 39.0132 59.8311 38.7268 59.6973 38.4646C59.5625 38.2023 59.3779 37.9694 59.1523 37.7794C58.9277 37.5895 58.667 37.4462 58.3857 37.358C58.1045 37.2698 57.8086 37.2385 57.5156 37.2659Z"
          fill="#FFBC57"
          fill-opacity="1.000000"
          fill-rule="nonzero"
        />
      </svg>