<svg width="44.500000" height="44.500000" viewBox="0 0 44.5 44.5" fill="none" xmlns="http://www.w3.org/2000/svg" xmlns:xlink="http://www.w3.org/1999/xlink">
	<defs/>
	<path id="Vector (Stroke)" d="M34.125 15.6253C32.5391 16.0579 31.375 17.5073 31.375 19.2313L31.375 28.8398L29.2949 26.9905C28.8105 26.5613 28.4043 26.3333 27.9766 26.1982C27.5293 26.0569 26.9863 25.9938 26.1875 25.9938C22.7441 25.9938 19.6934 28.5016 19.6934 31.7C19.6934 32.3904 19.1328 32.95 18.4434 32.95C17.7539 32.95 17.1934 32.3904 17.1934 31.7C17.1934 26.761 21.7539 23.4938 26.1875 23.4938C27.0957 23.4938 27.9297 23.5619 28.7285 23.8143C28.7773 23.8297 28.8262 23.8458 28.875 23.8624L28.875 19.2313C28.875 15.7847 31.666 12.9938 35.1113 12.9938L36.625 12.9938L36.625 31.3063C36.625 34.295 35.7715 37.1499 34.334 39.45C33.9688 40.0355 33.1973 40.2134 32.6113 39.8475C32.0273 39.4816 31.8496 38.7104 32.2148 38.125C33.4023 36.2252 34.125 33.83 34.125 31.3063L34.125 15.6253Z" fill="#FFFFFF" fill-opacity="1.000000" fill-rule="evenodd"/>
	<path id="Vector (Stroke)" d="M8.99414 23.625C9.68359 23.625 10.2441 24.1846 10.2441 24.875L10.2441 33.4062C10.2441 35.0677 10.5996 36.5621 11.2734 37.7952C11.6035 38.4012 11.3809 39.1605 10.7734 39.4911C10.168 39.8217 9.4082 39.5984 9.07812 38.9923C8.17578 37.3379 7.74414 35.4198 7.74414 33.4062L7.74414 24.875C7.74414 24.1846 8.30469 23.625 8.99414 23.625Z" fill="#FFFFFF" fill-opacity="1.000000" fill-rule="evenodd"/>
	<path id="Vector (Stroke)" d="M7.875 38.0625L36.625 38.0625L36.625 43.25C36.625 43.9404 36.0645 44.5 35.375 44.5C34.6855 44.5 34.125 43.9404 34.125 43.25L34.125 40.5625L10.375 40.5625L10.375 43.25C10.375 43.9404 9.81445 44.5 9.125 44.5C8.43555 44.5 7.875 43.9404 7.875 43.25L7.875 38.0625Z" fill="#FFFFFF" fill-opacity="1.000000" fill-rule="evenodd"/>
	<path id="Vector (Stroke)" d="M0 1.25C0 0.559631 0.560547 0 1.25 0L43.25 0C43.9395 0 44.5 0.559631 44.5 1.25L44.5 24.875C44.5 25.5654 43.9395 26.125 43.25 26.125L35.375 26.125C34.6855 26.125 34.125 25.5654 34.125 24.875C34.125 24.1846 34.6855 23.625 35.375 23.625L42 23.625L42 2.5L2.5 2.5L2.5 23.625L30.125 23.625C30.8145 23.625 31.375 24.1846 31.375 24.875C31.375 25.5654 30.8145 26.125 30.125 26.125L1.25 26.125C0.560547 26.125 0 25.5654 0 24.875L0 1.25Z" fill="#FFFFFF" fill-opacity="1.000000" fill-rule="evenodd"/>
	<path id="Vector (Stroke)" d="M21.5938 7.75C18.2969 7.75 15.625 10.4223 15.625 13.7188C15.625 17.0152 18.2969 19.6875 21.5938 19.6875C24.8906 19.6875 27.5625 17.0152 27.5625 13.7188C27.5625 10.4223 24.8906 7.75 21.5938 7.75ZM13.125 13.7188C13.125 9.04156 16.916 5.25 21.5938 5.25C26.2715 5.25 30.0625 9.04156 30.0625 13.7188C30.0625 18.3959 26.2715 22.1875 21.5938 22.1875C16.916 22.1875 13.125 18.3959 13.125 13.7188Z" fill="#FFFFFF" fill-opacity="1.000000" fill-rule="evenodd"/>
	<path id="Vector (Stroke)" d="M36.1621 2.49377C36.8516 2.49377 37.4121 3.05341 37.4121 3.74377C37.4121 5.41589 38.6895 6.69379 40.3613 6.69379C41.0527 6.69379 41.6113 7.25342 41.6113 7.94379C41.6113 8.63416 41.0527 9.19379 40.3613 9.19379C37.3086 9.19379 34.9121 6.79663 34.9121 3.74377C34.9121 3.05341 35.4727 2.49377 36.1621 2.49377Z" fill="#FFFFFF" fill-opacity="1.000000" fill-rule="evenodd"/>
	<path id="Vector (Stroke)" d="M2.625 17.9188C2.625 17.2284 3.18555 16.6688 3.875 16.6688C6.87695 16.6688 9.45703 19.0163 9.45703 22.1188C9.45703 22.8091 8.89648 23.3688 8.20703 23.3688C7.51562 23.3688 6.95703 22.8091 6.95703 22.1188C6.95703 20.4962 5.59766 19.1688 3.875 19.1688C3.18555 19.1688 2.625 18.6091 2.625 17.9188Z" fill="#FFFFFF" fill-opacity="1.000000" fill-rule="evenodd"/>
	<path id="Vector (Stroke)" d="M8.07422 2.625C8.76562 2.625 9.32422 3.18463 9.32422 3.875C9.32422 6.84729 6.74414 9.19373 3.875 9.19373C3.18555 9.19373 2.625 8.63409 2.625 7.94373C2.625 7.25342 3.18555 6.69373 3.875 6.69373C5.4668 6.69373 6.82422 5.36523 6.82422 3.875C6.82422 3.18463 7.38477 2.625 8.07422 2.625Z" fill="#FFFFFF" fill-opacity="1.000000" fill-rule="evenodd"/>
	<path id="Vector (Stroke)" d="M34.7812 22.1188C34.7812 19.0163 37.3594 16.6688 40.3633 16.6688C41.0527 16.6688 41.6133 17.2284 41.6133 17.9188C41.6133 18.6091 41.0527 19.1688 40.3633 19.1688C38.6406 19.1688 37.2812 20.4962 37.2812 22.1188C37.2812 22.8091 36.7207 23.3688 36.0312 23.3688C35.3418 23.3688 34.7812 22.8091 34.7812 22.1188Z" fill="#FFFFFF" fill-opacity="1.000000" fill-rule="evenodd"/>
</svg>
