<svg width="100.000000" height="100.000000" viewBox="0 0 100 100" fill="none" xmlns="http://www.w3.org/2000/svg" xmlns:xlink="http://www.w3.org/1999/xlink">
	<defs/>
	<circle id="Ellipse 21" cx="50.000000" cy="50.000000" r="50.000000" fill="#FFBC57" fill-opacity="1.000000"/>
	<path id="Vector (Stroke)" d="M28.125 28.5C27.1895 28.5 26.5 29.1904 26.5 30.125L26.5 51.875C26.5 52.9663 27.2129 53.5 27.75 53.5L30.25 53.5C30.9395 53.5 31.5 54.0596 31.5 54.75C31.5 55.4404 30.9395 56 30.25 56L27.75 56C25.5371 56 24 54.0337 24 51.875L24 30.125C24 27.8096 25.8105 26 28.125 26L63.625 26C65.9395 26 67.75 27.8096 67.75 30.125L67.75 41C67.75 41.6904 67.1895 42.25 66.5 42.25C65.8105 42.25 65.25 41.6904 65.25 41L65.25 30.125C65.25 29.1904 64.5605 28.5 63.625 28.5L28.125 28.5Z" fill="#FFFFFF" fill-opacity="1.000000" fill-rule="evenodd"/>
	<path id="Vector (Stroke)" d="M24 33.5C24 32.8096 24.5605 32.25 25.25 32.25L66.5 32.25C67.1895 32.25 67.75 32.8096 67.75 33.5L67.75 38.5C67.75 39.1904 67.1895 39.75 66.5 39.75L25.25 39.75C24.5605 39.75 24 39.1904 24 38.5L24 33.5ZM26.5 34.75L26.5 37.25L65.25 37.25L65.25 34.75L26.5 34.75Z" fill="#FFFFFF" fill-opacity="1.000000" fill-rule="evenodd"/>
	<path id="Vector (Stroke)" d="M36.875 46C35.9395 46 35.25 46.6904 35.25 47.625L35.25 69.375C35.25 70.3096 35.9395 71 36.875 71L72.25 71C73.2188 71 74 70.1508 74 69.375L74 47.625C74 46.6904 73.3105 46 72.375 46L36.875 46ZM32.75 47.625C32.75 45.3096 34.5605 43.5 36.875 43.5L72.375 43.5C74.6895 43.5 76.5 45.3096 76.5 47.625L76.5 69.375C76.5 71.5992 74.5312 73.5 72.25 73.5L36.875 73.5C34.5605 73.5 32.75 71.6904 32.75 69.375L32.75 47.625Z" fill="#FFFFFF" fill-opacity="1.000000" fill-rule="evenodd"/>
	<path id="Vector (Stroke)" d="M39 66C39 65.3096 39.5605 64.75 40.25 64.75L46.5 64.75C47.1895 64.75 47.75 65.3096 47.75 66C47.75 66.6904 47.1895 67.25 46.5 67.25L40.25 67.25C39.5605 67.25 39 66.6904 39 66Z" fill="#FFFFFF" fill-opacity="1.000000" fill-rule="evenodd"/>
	<path id="Vector (Stroke)" d="M50.25 66C50.25 65.3096 50.8105 64.75 51.5 64.75L57.75 64.75C58.4395 64.75 59 65.3096 59 66C59 66.6904 58.4395 67.25 57.75 67.25L51.5 67.25C50.8105 67.25 50.25 66.6904 50.25 66Z" fill="#FFFFFF" fill-opacity="1.000000" fill-rule="evenodd"/>
	<path id="Vector (Stroke)" d="M61.5 66C61.5 65.3096 62.0605 64.75 62.75 64.75L69 64.75C69.6895 64.75 70.25 65.3096 70.25 66C70.25 66.6904 69.6895 67.25 69 67.25L62.75 67.25C62.0605 67.25 61.5 66.6904 61.5 66Z" fill="#FFFFFF" fill-opacity="1.000000" fill-rule="evenodd"/>
	<path id="Vector (Stroke)" d="M65.875 53.5C64.8398 53.5 64 54.3395 64 55.375C64 56.4105 64.8398 57.25 65.875 57.25C66.9102 57.25 67.75 56.4105 67.75 55.375C67.75 54.3395 66.9102 53.5 65.875 53.5ZM61.5 55.375C61.5 52.9587 63.459 51 65.875 51C68.291 51 70.25 52.9587 70.25 55.375C70.25 57.7913 68.291 59.75 65.875 59.75C63.459 59.75 61.5 57.7913 61.5 55.375Z" fill="#FFFFFF" fill-opacity="1.000000" fill-rule="evenodd"/>
</svg>
