        <svg
          width="70.312500"
          height="28.123779"
          viewBox="0 0 71.3125 29.1238"
          fill="none"
          xmlns="http://www.w3.org/2000/svg"
          xmlns:xlink="http://www.w3.org/1999/xlink"
        >
          <defs />
          <path
            id="Vector"
            d="M28.418 15.0149L24.8965 23.8335L24.5547 22.0061C23.6953 19.7817 21.8066 17.4775 19.5742 16.6038L22.8359 27.9648L26.6133 27.9648L32.2812 15.0149L28.418 15.0149ZM31.4219 27.9648L33.6543 15.0149L37.2598 15.0149L35.0273 27.9648L31.4219 27.9648ZM52.8848 23.3569C53.1426 22.6418 54.3438 19.7024 54.3438 19.7024C54.3438 19.7024 54.6016 18.9871 54.8594 18.4312L55.1172 19.5435L55.9746 23.2773L52.8848 23.2773L52.8848 23.3569ZM57.2637 15.0149L54.5156 15.0149C53.6582 15.0149 52.9707 15.2532 52.627 16.127L47.3047 27.9648L51.082 27.9648C51.082 27.9648 51.6836 26.376 51.8555 25.9788C52.2832 25.9788 55.9746 25.9788 56.4902 25.9788C56.5762 26.4553 56.9199 27.8855 56.9199 27.8855L60.2676 27.8855C60.1816 27.9648 57.2637 15.0149 57.2637 15.0149ZM48.0762 15.3325C47.3906 15.0942 46.2734 14.7764 44.8145 14.7764C41.2949 14.7764 38.7188 16.5244 38.7188 19.0667C38.7188 20.894 40.5215 22.0061 41.8965 22.5625C43.2695 23.198 43.7852 23.5952 43.7852 24.1514C43.7852 25.0254 42.668 25.4226 41.6387 25.4226C40.1797 25.4226 39.4062 25.2637 38.2891 24.7075L37.7754 24.5488L37.2598 27.4089C38.1191 27.8062 39.6641 28.0444 41.2949 28.1238C45.0723 28.1238 47.5625 26.376 47.5625 23.6746C47.5625 22.165 46.6172 21.053 44.5566 20.179C43.2695 19.5435 42.4961 19.146 42.582 18.5898C42.582 18.0339 43.2695 17.4775 44.6426 17.4775C45.5879 17.4775 46.5312 17.6365 47.3047 17.9543L47.6484 18.1133C47.5625 18.1133 48.0762 15.3325 48.0762 15.3325Z"
            fill="#B1B1B1"
            fill-opacity="1.000000"
            fill-rule="nonzero"
          />
          <path
            id="Vector"
            d="M4.97852 11.9172L2.66211 11.9172L0 0.794434L2.57617 0.397217L4.37891 9.05713L9.01367 0.476807L11.418 0.476807L4.97852 11.9172ZM66.793 12.1558C65.9336 13.6653 65.1621 14.0625 63.959 14.0625C63.7012 14.0625 63.5293 14.0625 63.3594 13.9832L63.3594 12.7913C63.5293 12.8708 63.7871 12.8708 64.1309 12.8708C64.5605 12.8708 64.9902 12.6323 65.248 12.2351L65.418 11.8379L64.0449 5.95874L65.7617 5.72021L66.5352 10.0107L68.6816 5.87915L70.3125 5.87915L66.793 12.1558ZM60.4395 7.07104C59.9238 7.07104 59.4102 7.38867 58.8945 7.86548L58.3789 10.5667C58.7227 10.6462 58.8945 10.7256 59.4102 10.7256C60.4395 10.7256 61.127 10.1694 61.3848 8.81885C61.5547 7.6272 61.127 7.07104 60.4395 7.07104ZM59.2383 11.9172C58.3789 11.9172 57.5215 11.7585 56.6621 11.5203L58.0352 3.09863L59.666 2.86011L59.0664 6.51489C59.582 6.11768 60.1816 5.72021 61.041 5.72021C62.4141 5.72021 63.3594 6.67383 63.0156 8.65991C62.5859 10.8845 61.127 11.9172 59.2383 11.9172ZM51.5977 5.72021C51.082 5.48193 50.7383 5.40259 49.9648 5.40259C48.8496 5.40259 47.9043 6.27637 47.6484 7.94482C47.3906 9.45435 47.9902 10.1694 48.9355 10.1694C49.709 10.1694 50.3945 9.77222 51.082 9.05713L51.5977 5.72021ZM50.9102 11.8379L50.9102 10.7256C50.2227 11.3613 49.2793 11.9968 48.0762 11.9968C46.2734 11.9968 45.0723 10.8052 45.502 8.10376C46.0156 5.16431 47.9902 3.81348 49.9648 3.81348C50.7383 3.81348 51.4258 3.97241 51.8535 4.13135L52.4551 0.317871L54.6875 0L52.7129 11.8379L50.9102 11.8379ZM41.4668 5.08472C40.6074 5.08472 39.8359 5.72021 39.4922 6.99146L42.8398 6.99146C42.8398 5.7998 42.4102 5.08472 41.4668 5.08472ZM44.6426 8.2627L39.1484 8.2627C38.9766 9.77222 39.75 10.4873 41.0371 10.4873C42.1523 10.4873 43.0977 10.0901 44.127 9.53394L44.127 11.0435C43.0977 11.5996 41.8965 11.9968 40.5215 11.9968C38.1172 11.9968 36.5723 10.7256 37.002 7.86548C37.4316 5.32324 39.3203 3.73413 41.5527 3.73413C44.127 3.73413 44.9863 5.56152 44.5566 7.78589C44.7285 7.94482 44.6426 8.18335 44.6426 8.2627ZM35.6289 2.62183C34.9414 2.62183 34.4258 2.14526 34.5117 1.50952C34.5977 0.874023 35.2852 0.397217 35.9727 0.397217C36.6582 0.397217 37.1738 0.874023 37.002 1.50952C36.916 2.14526 36.3145 2.62183 35.6289 2.62183ZM32.9668 11.8379L34.2539 3.89307L36.4004 3.89307L35.1133 11.8379L32.9668 11.8379ZM32.9668 1.7478C32.2793 1.7478 31.7656 2.06567 31.6797 2.78076L31.5078 3.97241L33.1387 3.97241L33.1387 5.56152L31.25 5.56152L30.2207 11.8379L28.1602 11.8379L29.1895 5.56152L27.9883 5.56152L28.2461 3.97241L29.4473 3.97241L29.7051 2.62183C29.9629 0.874023 31.3359 0.238281 33.0527 0.238281C33.3965 0.238281 33.7402 0.238281 33.9121 0.317871L33.9121 1.90674C33.5684 1.7478 33.3105 1.7478 32.9668 1.7478ZM26.2715 2.62183C25.584 2.62183 25.0684 2.14526 25.1543 1.50952C25.2402 0.874023 25.9277 0.397217 26.6133 0.397217C27.3008 0.397217 27.8164 0.874023 27.6445 1.50952C27.6445 2.14526 26.957 2.62183 26.2715 2.62183ZM23.6953 11.8379L24.9824 3.89307L27.1289 3.89307L25.8418 11.8379L23.6953 11.8379ZM20.4336 7.30933L19.6602 11.8379L17.5137 11.8379L18.8008 3.89307L20.6035 3.89307L20.6035 5.48193C21.291 4.52856 22.3223 3.81348 23.6094 3.73413L23.6094 5.72021C22.4082 5.7998 21.2051 6.4353 20.4336 7.30933ZM13.6504 5.08472C12.791 5.08472 12.0195 5.72021 11.6758 6.99146L15.0234 6.99146C15.1094 5.7998 14.6797 5.08472 13.6504 5.08472ZM16.9121 8.2627L11.418 8.2627C11.2461 9.77222 12.0195 10.4873 13.3066 10.4873C14.4238 10.4873 15.3672 10.0901 16.3984 9.53394L16.3984 11.0435C15.3672 11.5996 14.252 11.9968 12.791 11.9968C10.3887 11.9968 8.8418 10.7256 9.27148 7.86548C9.70117 5.32324 11.5898 3.73413 13.8223 3.73413C16.3984 3.73413 17.2559 5.56152 16.8262 7.78589C16.9121 7.94482 16.9121 8.18335 16.9121 8.2627Z"
            fill="#B1B1B1"
            fill-opacity="1.000000"
            fill-rule="nonzero"
          />
        </svg>