 <svg
          width="89.062500"
          height="28.125977"
          viewBox="0 0 89.0625 28.126"
          fill="none"
          xmlns="http://www.w3.org/2000/svg"
          xmlns:xlink="http://www.w3.org/1999/xlink"
        >
          <desc>Created with Pixso.</desc>
          <defs />
          <path
            id="Vector"
            d="M32.5996 24.4197C32.5996 24.7466 32.5996 25.0737 32.4922 25.4006C32.2793 25.8369 31.9609 26.2729 31.5332 26.3818C31.002 26.491 30.5762 26.491 30.043 26.3818C29.8301 26.2729 29.6172 26.1638 29.4043 26.0547C29.1895 25.8369 29.084 25.6189 28.9766 25.4006C28.8711 25.0737 28.8711 24.7466 28.8711 24.4197L28.8711 20.0591L27.166 20.0591L27.166 24.5286C27.166 25.0737 27.2734 25.6189 27.4863 26.1638C27.6992 26.5999 27.9121 26.927 28.2324 27.2539C28.5508 27.5811 28.9766 27.7991 29.4043 27.908C30.2559 28.126 31.2148 28.126 32.0664 27.908C32.4922 27.7991 32.9199 27.5811 33.2383 27.2539C33.5586 26.927 33.877 26.5999 33.9844 26.1638C34.1973 25.6189 34.3047 25.0737 34.3047 24.5286L34.3047 20.0591L32.5996 20.0591L32.5996 24.4197ZM40.377 19.8411C39.9512 19.8411 39.5234 19.9502 39.0977 20.0591C38.6719 20.2771 38.3516 20.4951 38.1387 20.9312L38.1387 20.0591L36.4355 20.0591L36.4355 27.7991L38.1387 27.7991L38.1387 23.5476C38.1387 23.2205 38.1387 23.0024 38.2461 22.6753C38.3516 22.4575 38.459 22.2395 38.5645 22.0212C38.7793 21.8035 38.8848 21.6943 39.0977 21.5852C39.3105 21.4763 39.6309 21.4763 39.8438 21.4763C40.0566 21.4763 40.2695 21.4763 40.4824 21.5852C40.6953 21.5852 40.9082 21.6943 41.123 21.8035L41.5488 20.1682C41.3359 20.0591 41.123 20.0591 40.9082 19.9502C40.8027 19.8411 40.5898 19.8411 40.377 19.8411ZM43.8926 23.2205C43.8926 23.0024 43.998 22.6753 44.1055 22.4575C44.2109 22.2395 44.3184 22.0212 44.5312 21.8035C44.7441 21.5854 44.957 21.4763 45.1699 21.3672C45.3828 21.2583 45.7031 21.2583 45.916 21.2583C46.4492 21.2583 46.875 21.3672 47.1953 21.8035C47.5137 22.2395 47.7266 22.6753 47.834 23.2205L43.8926 23.2205ZM48.5801 20.9312C48.2598 20.6042 47.834 20.2771 47.4082 20.0591C46.9824 19.8411 46.4492 19.7322 45.916 19.7322C45.3828 19.7322 44.8516 19.8411 44.4238 20.0591C43.998 20.2771 43.5723 20.4951 43.252 20.9312C42.9336 21.2583 42.6133 21.6943 42.5078 22.2395C42.2949 22.7844 42.1875 23.3293 42.1875 23.8745C42.1875 24.4197 42.2949 24.9646 42.5078 25.5098C42.8262 26.491 43.5723 27.2539 44.5312 27.5811C45.0645 27.7991 45.5957 27.908 46.1289 27.908C46.6621 27.908 47.3008 27.7991 47.834 27.6899C48.3672 27.4719 48.8984 27.2539 49.3262 26.8179L48.4727 25.6189C48.1543 25.8369 47.834 26.0547 47.4082 26.2729C47.0879 26.3818 46.6621 26.491 46.2363 26.491C46.0234 26.491 45.7031 26.491 45.4902 26.3818C45.2773 26.2729 45.0645 26.1638 44.8516 26.0547C44.6387 25.8369 44.4238 25.6189 44.3184 25.4006C44.2109 25.0737 44.1055 24.8557 43.998 24.5286L49.752 24.5286L49.752 23.8745C49.752 23.3293 49.6445 22.7844 49.4316 22.2395C49.2188 21.8035 48.8984 21.3672 48.5801 20.9312ZM7.88281 22.1304C7.56445 21.9124 7.13867 21.6943 6.71094 21.5852C6.28516 21.4763 5.85938 21.3672 5.43359 21.2583L4.6875 21.1494C4.36719 21.1494 4.04883 21.0403 3.72852 20.9312C3.51562 20.8223 3.19531 20.8223 2.98242 20.6042C2.76953 20.4951 2.66406 20.3862 2.55664 20.1682C2.45117 19.9502 2.34375 19.7322 2.34375 19.5142C2.34375 19.2959 2.45117 18.969 2.55664 18.8601C2.66406 18.6418 2.87695 18.4241 3.08984 18.3149C3.30273 18.2061 3.62305 17.9878 3.83594 17.9878C4.1543 17.8789 4.47461 17.8789 4.90039 17.8789C5.43359 17.8789 5.9668 17.9878 6.49805 18.0969C7.03125 18.3149 7.56445 18.533 7.99023 18.8601L8.8418 17.4429C8.31055 17.116 7.66992 16.7888 7.03125 16.5708C6.28516 16.3528 5.53906 16.2437 4.79492 16.2437C4.26172 16.2437 3.62305 16.3528 3.08984 16.4619C2.55664 16.5708 2.13086 16.7888 1.70508 17.116C1.2793 17.4429 0.958984 17.77 0.746094 18.2061C0.533203 18.6418 0.425781 19.187 0.425781 19.7322C0.425781 20.1682 0.533203 20.7131 0.746094 21.0403C0.851562 21.4763 1.06445 21.8035 1.38477 22.0212C1.70508 22.2395 2.02344 22.4575 2.45117 22.5664C2.87695 22.7844 3.30273 22.8936 3.72852 22.8936L4.58008 23.0024C5.2207 23.1116 5.85938 23.2205 6.49805 23.5476C6.92383 23.7656 7.13867 24.0925 7.13867 24.5286C7.13867 24.7466 7.03125 25.0737 6.92383 25.2917C6.81836 25.5098 6.60547 25.7278 6.39258 25.8369C6.17969 25.9458 5.85938 26.0547 5.53906 26.1638C5.2207 26.2729 4.90039 26.2729 4.47461 26.2729C4.1543 26.2729 3.83594 26.2729 3.51562 26.1638C2.87695 26.0547 2.23633 25.8369 1.70508 25.5098C1.49219 25.4006 1.17188 25.1826 1.06445 24.9646L0 26.491C0.320312 26.7087 0.638672 26.927 0.958984 27.145C1.2793 27.3628 1.70508 27.4719 2.02344 27.5811C2.45117 27.6899 2.87695 27.7991 3.30273 27.908C3.72852 28.0168 4.04883 28.0168 4.47461 28.0168C5.00781 28.0168 5.64648 27.908 6.17969 27.7991C6.71094 27.6899 7.13867 27.4719 7.56445 27.145C7.99023 26.8179 8.31055 26.491 8.52344 26.0547C8.73633 25.6189 8.8418 25.0737 8.8418 24.5286C8.8418 24.0925 8.73633 23.6565 8.52344 23.2205C8.41602 22.6753 8.20312 22.4575 7.88281 22.1304ZM11.9316 23.2205C11.9316 23.0024 12.0391 22.6753 12.1445 22.4575C12.252 22.2395 12.3574 22.0212 12.5703 21.8035C12.7832 21.5854 12.998 21.4763 13.2109 21.3672C13.4238 21.2583 13.7422 21.2583 13.9551 21.2583C14.4883 21.2583 14.9141 21.4763 15.2344 21.8035C15.5547 22.2395 15.7676 22.6753 15.873 23.2205L11.9316 23.2205ZM16.6191 20.9312C16.2988 20.6042 15.873 20.2771 15.4473 20.0591C15.0215 19.8411 14.4883 19.7322 13.9551 19.7322C13.4238 19.7322 12.8906 19.8411 12.4648 20.0591C12.0391 20.2771 11.6113 20.4951 11.293 20.9312C10.9727 21.2583 10.6543 21.6943 10.5469 22.2395C10.334 22.7844 10.2266 23.3293 10.2266 23.8745C10.2266 24.4197 10.334 24.9646 10.5469 25.5098C10.8672 26.491 11.6113 27.2539 12.5703 27.5811C13.1035 27.7991 13.6367 27.908 14.1699 27.908C14.7012 27.908 15.3418 27.7991 15.873 27.6899C16.4062 27.4719 16.9395 27.2539 17.3652 26.8179L16.5137 25.6189C16.1934 25.8369 15.873 26.0547 15.4473 26.2729C15.127 26.3818 14.7012 26.491 14.2754 26.491C14.0625 26.491 13.7422 26.491 13.5293 26.3818C13.3164 26.2729 13.1035 26.1638 12.8906 26.0547C12.6777 25.8369 12.4648 25.6189 12.3574 25.4006C12.252 25.0737 12.1445 24.8557 12.0391 24.5286L17.6855 24.5286L17.6855 23.8745C17.6855 23.3293 17.5781 22.7844 17.3652 22.2395C17.1523 21.8035 16.9395 21.3672 16.6191 20.9312ZM23.8633 26.1638C23.2246 26.491 22.5859 26.491 21.9453 26.2729C21.627 26.1638 21.4141 25.9458 21.2012 25.7278C20.9863 25.5098 20.8809 25.1826 20.7734 24.9646C20.5605 24.3105 20.5605 23.5476 20.7734 22.8936C20.8809 22.5664 21.0938 22.3484 21.2012 22.1304C21.4141 21.9124 21.627 21.6943 21.9453 21.5852C22.2656 21.4763 22.4785 21.3672 22.7988 21.3672C23.1172 21.3672 23.4375 21.4763 23.7578 21.5852C24.0762 21.6943 24.3965 21.9124 24.6094 22.2395L25.6738 21.0403C25.3555 20.6042 24.9297 20.2771 24.502 20.1682C23.9707 19.9502 23.4375 19.8411 22.9043 19.8411C22.373 19.8411 21.7324 19.9502 21.2012 20.1682C20.2422 20.6042 19.4961 21.3672 19.1758 22.3484C18.75 23.4385 18.75 24.5286 19.1758 25.6189C19.4961 26.5999 20.3477 27.3628 21.3066 27.7991C21.8398 28.0168 22.373 28.126 23.0117 28.126C23.5449 28.126 24.0762 28.0168 24.6094 27.7991C25.1426 27.5811 25.5684 27.2539 25.8887 26.8179L24.8223 25.6189C24.3965 25.8369 24.1836 26.0547 23.8633 26.1638ZM78.0898 24.8557C77.9824 25.1826 77.7695 25.4006 77.6641 25.6189C77.4512 25.8369 77.2363 26.0547 76.918 26.1638C76.2793 26.3818 75.6387 26.3818 75 26.1638C74.4668 25.9458 74.041 25.4006 73.8281 24.8557C73.6152 24.2017 73.6152 23.5476 73.8281 22.8936C74.041 22.3484 74.4668 21.8035 75 21.5852C75.3203 21.4763 75.6387 21.3672 75.959 21.3672C76.2793 21.3672 76.5977 21.4763 76.918 21.5852C77.2363 21.6943 77.4512 21.9124 77.6641 22.1304C77.877 22.3484 77.9824 22.6753 78.0898 22.8936C78.3027 23.5476 78.3027 24.3105 78.0898 24.8557ZM78.1953 20.9312C77.6641 20.1682 76.7051 19.7322 75.7461 19.8411C74.1484 19.8411 72.7637 20.8223 72.2305 22.2395C71.8047 23.3293 71.8047 24.4197 72.2305 25.5098C72.4434 25.9458 72.6562 26.491 73.082 26.8179C73.8281 27.5811 74.7871 28.0168 75.7461 28.0168C76.2793 28.0168 76.7051 27.908 77.1309 27.6899C77.5566 27.4719 77.877 27.2539 78.0898 26.8179L78.0898 27.7991L79.9004 27.7991L79.9004 16.1348L78.1953 16.1348L78.1953 20.9312ZM83.3105 23.2205C83.3105 23.0024 83.416 22.6753 83.5234 22.4575C83.6289 22.2395 83.7363 22.0212 83.9492 21.8035C84.1621 21.5854 84.375 21.4763 84.5879 21.3672C84.8008 21.2583 85.1211 21.2583 85.334 21.2583C85.8672 21.2583 86.293 21.3672 86.6113 21.6943C86.9316 22.1304 87.1445 22.5664 87.252 23.1116L83.3105 23.1116L83.3105 23.2205ZM87.998 20.9312C87.6777 20.6042 87.252 20.2771 86.8262 20.0591C86.3984 19.8411 85.8672 19.7322 85.334 19.7322C84.8008 19.7322 84.375 19.8411 83.8418 20.0591C83.416 20.2771 82.9902 20.4951 82.6699 20.9312C82.3516 21.2583 82.0312 21.6943 81.9238 22.2395C81.7109 22.7844 81.6055 23.3293 81.6055 23.8745C81.6055 24.4197 81.7109 24.9646 81.9238 25.5098C82.1387 25.9458 82.3516 26.3818 82.7773 26.8179C83.0957 27.145 83.5234 27.4719 83.9492 27.6899C84.4824 27.908 85.0137 28.0168 85.5469 28.0168C86.0801 28.0168 86.7188 27.908 87.252 27.7991C87.7832 27.5811 88.3164 27.3628 88.7422 26.927L87.8906 25.7278C87.5703 25.9458 87.252 26.1638 86.8262 26.3818C86.5059 26.491 86.0801 26.5999 85.6543 26.5999C85.4395 26.5999 85.1211 26.5999 84.9082 26.491C84.6953 26.3818 84.4824 26.2729 84.2676 26.1638C84.0547 25.9458 83.8418 25.7278 83.7363 25.5098C83.6289 25.1826 83.5234 24.9646 83.416 24.6377L89.0625 24.6377L89.0625 23.9834C89.0625 23.4385 88.9551 22.8936 88.7422 22.3484C88.6367 21.6943 88.3164 21.2583 87.998 20.9312ZM68.8203 24.8557C68.6074 25.4006 68.0762 25.9458 67.543 26.1638C66.9043 26.3818 66.2637 26.3818 65.625 26.1638C65.0918 25.9458 64.5605 25.5098 64.3457 24.8557C64.1328 24.2017 64.1328 23.4385 64.3457 22.7844C64.4531 22.4575 64.666 22.2395 64.8789 22.0212C65.0918 21.8035 65.3047 21.5854 65.625 21.4763C65.9453 21.3672 66.2637 21.2583 66.584 21.2583C66.9043 21.2583 67.2227 21.3672 67.543 21.4763C67.8613 21.5854 68.0762 21.8035 68.2891 22.0212C68.502 22.2395 68.7148 22.5664 68.8203 22.7844C69.1406 23.5476 69.1406 24.2017 68.8203 24.8557ZM69.5664 20.9312C69.1406 20.6042 68.7148 20.2771 68.2891 20.0591C67.7559 19.8411 67.2227 19.7322 66.6895 19.7322C66.1582 19.7322 65.5176 19.8411 64.9863 20.0591C64.4531 20.2771 64.0273 20.4951 63.707 20.9312C63.3887 21.2583 63.0684 21.6943 62.8555 22.2395C62.4297 23.3293 62.4297 24.4197 62.8555 25.5098C63.0684 25.9458 63.3887 26.3818 63.707 26.8179C64.1328 27.145 64.5605 27.4719 64.9863 27.6899C66.0508 28.126 67.2227 28.126 68.2891 27.6899C68.8203 27.4719 69.248 27.2539 69.5664 26.8179C69.8867 26.491 70.2051 26.0547 70.4199 25.5098C70.8457 24.4197 70.8457 23.3293 70.4199 22.2395C70.2051 21.8035 69.9922 21.3672 69.5664 20.9312ZM53.9062 19.0781C54.2266 18.751 54.6523 18.4241 55.1855 18.2061C55.7168 17.9878 56.25 17.8789 56.7832 17.8789C57.4219 17.8789 58.0605 17.9878 58.5938 18.3149C59.127 18.6418 59.5527 18.969 59.873 19.5142L61.3633 18.533C61.1504 18.2061 60.8301 17.8789 60.5117 17.552C60.1914 17.2249 59.873 17.0068 59.4453 16.7888C59.0195 16.5708 58.5938 16.4619 58.168 16.3528C57.7422 16.2437 57.209 16.2437 56.6758 16.2437C55.8242 16.2437 55.0781 16.3528 54.332 16.6797C52.9473 17.2249 51.7754 18.3149 51.2422 19.8411C50.7109 21.3672 50.7109 23.0024 51.2422 24.5286C51.7754 25.9458 52.9473 27.0359 54.332 27.6899C55.5039 28.126 56.8887 28.2351 58.0605 28.0168C58.4863 27.908 58.9141 27.7991 59.3398 27.5811C59.7656 27.3628 60.0859 27.145 60.4043 26.8179C60.7246 26.491 61.0449 26.1638 61.2578 25.8369L59.7656 24.7466C59.0195 25.8369 57.8477 26.3818 56.6758 26.3818C56.1426 26.3818 55.6113 26.2729 55.0781 26.0547C54.6523 25.8369 54.2266 25.6189 53.7988 25.1826C53.4805 24.8557 53.1602 24.3105 52.9473 23.8745C52.5215 22.7844 52.5215 21.5852 52.9473 20.4951C53.2676 19.9502 53.5859 19.5142 53.9062 19.0781Z"
            fill="#B1B1B1"
            fill-opacity="1.000000"
            fill-rule="nonzero"
          />
          <path
            id="Vector"
            d="M47.4062 4.6875C47.0879 4.36035 46.6621 4.03345 46.2344 3.81543C45.8086 3.59741 45.2754 3.48828 44.7441 3.48828C44.2109 3.48828 43.6777 3.59741 43.1465 3.81543C42.6133 4.03345 42.1875 4.36035 41.8672 4.6875C41.5469 5.12354 41.2285 5.55933 41.0156 5.99561C40.8027 6.54077 40.6953 7.08569 40.6953 7.73975C40.6953 8.28467 40.8027 8.93872 41.0156 9.48389C41.2285 10.0291 41.4414 10.4651 41.8672 10.792C42.1875 11.1191 42.7188 11.446 43.1465 11.6641C43.6777 11.8823 44.2109 11.9912 44.8496 11.9912C45.3828 11.9912 46.0215 11.8823 46.5547 11.7732C47.0879 11.5552 47.6191 11.3372 48.0469 10.9011L47.1934 9.7019C47.0332 9.81104 46.8477 9.91992 46.6621 10.0291C46.4746 10.1379 46.2891 10.2471 46.1289 10.356C45.7031 10.4651 45.2754 10.5742 44.957 10.5742C44.6367 10.5742 44.4238 10.5742 44.1035 10.4651C44.041 10.4165 43.9766 10.3684 43.9102 10.3193C43.5273 10.0366 43.1133 9.73047 42.9316 9.26587C42.7188 9.04785 42.6133 8.72095 42.6133 8.3938L48.4727 8.3938L48.4727 7.73975C48.4727 7.19482 48.3652 6.54077 48.1523 5.99561C48.0469 5.55933 47.834 5.0144 47.4062 4.6875ZM42.6133 7.08569C42.6133 6.75854 42.7188 6.54077 42.8262 6.32251C42.9316 6.10449 43.0391 5.88647 43.252 5.66846C43.4648 5.45044 43.6777 5.34155 43.8906 5.23242C44.1035 5.12354 44.4238 5.12354 44.7441 5.12354C45.2754 5.12354 45.7031 5.34155 46.1289 5.66846C46.4473 6.10449 46.7676 6.54077 46.7676 7.08569L42.6133 7.08569Z"
            fill="#B1B1B1"
            fill-opacity="1.000000"
            fill-rule="evenodd"
          />
          <path
            id="Vector"
            d="M38.459 10.1382C38.2461 10.2471 37.9258 10.2471 37.6055 10.2471C37.3926 10.2471 37.2871 10.2471 37.0742 10.1382C37.0195 10.0835 36.9414 10.0564 36.8613 10.0291C36.7812 10.002 36.7012 9.97461 36.6484 9.91992C36.5938 9.86548 36.541 9.78369 36.4883 9.7019C36.4336 9.62036 36.3809 9.53857 36.3281 9.48413C36.2207 9.26587 36.2207 9.04785 36.2207 8.83008L36.2207 5.34155L39.418 5.34155L39.418 3.7063L36.3281 3.7063L36.3281 1.30811L34.623 1.30811L34.623 3.7063L33.0254 3.7063L33.0254 5.34155L34.623 5.34155L34.623 8.83008C34.5176 9.7019 34.8359 10.5742 35.3691 11.2283C35.9023 11.7732 36.6484 11.9912 37.5 11.9912C37.9258 11.9912 38.459 11.8823 38.8848 11.7732C39.3105 11.6641 39.6309 11.4463 39.9492 11.2283L39.2051 9.81104C38.9922 9.91992 38.7773 10.0291 38.459 10.1382Z"
            fill="#B1B1B1"
            fill-opacity="1.000000"
            fill-rule="nonzero"
          />
          <path
            id="Vector"
            d="M58.6992 5.88647C58.9141 5.66846 59.127 5.45044 59.4453 5.34155C59.7656 5.23242 60.0859 5.12354 60.4043 5.12354C60.7246 5.12354 61.1504 5.23242 61.4707 5.34155C61.7891 5.45044 62.1094 5.66846 62.3223 5.99561L63.3867 4.79639C63.0684 4.36035 62.6426 4.03345 62.1094 3.81543C61.5762 3.59741 61.043 3.48828 60.4043 3.48828C59.8711 3.48828 59.2324 3.59741 58.6992 3.81543C57.7422 4.25146 56.8887 5.0144 56.5703 5.99561C56.1426 7.08569 56.1426 8.28467 56.5703 9.375C56.9961 10.356 57.7422 11.2283 58.6992 11.5552C59.2324 11.7732 59.8711 11.8823 60.4043 11.8823C60.9375 11.8823 61.5762 11.7732 62.1094 11.5552C62.6426 11.3372 63.0684 11.01 63.3867 10.5742L62.3223 9.375C62.1094 9.59277 61.7891 9.81104 61.4707 10.0291C61.1504 10.1379 60.7246 10.2471 60.4043 10.2471C60.0859 10.2471 59.7656 10.1379 59.4453 10.0291C59.127 9.91992 58.9141 9.7019 58.6992 9.48389C58.4863 9.26587 58.2734 8.93872 58.168 8.72095C57.9551 8.06689 57.9551 7.30371 58.168 6.64966C58.2246 6.56201 58.2734 6.48218 58.3203 6.4082C58.4453 6.20557 58.5449 6.04614 58.6992 5.88647Z"
            fill="#B1B1B1"
            fill-opacity="1.000000"
            fill-rule="nonzero"
          />
          <path
            id="Vector"
            d="M10.5469 0L7.13867 8.3938L3.83594 0L0.958984 0L0.958984 11.7732L2.87695 11.7732L2.87695 2.18018L6.28516 10.5742L8.31055 10.5742L11.7188 2.07129L11.7188 11.7732L13.6367 11.7732L13.6367 0L10.5469 0Z"
            fill="#B1B1B1"
            fill-opacity="1.000000"
            fill-rule="nonzero"
          />
          <path
            id="Vector"
            d="M21.5195 4.6875C21.2012 4.36035 20.8809 4.03345 20.4551 3.81543C20.0293 3.59741 19.4961 3.48828 18.9629 3.48828C17.3652 3.48828 15.873 4.46948 15.3418 5.99561C14.9141 7.08569 14.9141 8.28467 15.3418 9.375C15.5547 9.91992 15.7676 10.356 16.1934 10.6831C16.9395 11.446 18.0039 11.8823 18.9629 11.8823C19.4961 11.8823 19.9219 11.7732 20.4551 11.5552C20.8809 11.3372 21.2012 11.01 21.5195 10.6831L21.5195 11.6641L23.2246 11.6641L23.2246 3.7063L21.5195 3.7063L21.5195 4.6875ZM21.5195 8.72095C21.3066 9.375 20.7734 9.81104 20.2422 10.1379C19.6016 10.356 18.8574 10.356 18.2168 10.1379C17.8984 10.0291 17.6855 9.81104 17.4727 9.59277C17.2578 9.375 17.1523 9.04785 17.0449 8.72095C16.832 8.06689 16.832 7.4126 17.0449 6.75854C17.2578 6.10449 17.6855 5.66846 18.2168 5.34155C18.5371 5.23242 18.8574 5.12354 19.1758 5.12354C20.1348 5.12354 21.0938 5.66846 21.4141 6.64966C21.7324 7.4126 21.7324 8.06689 21.5195 8.72095Z"
            fill="#B1B1B1"
            fill-opacity="1.000000"
            fill-rule="evenodd"
          />
          <path
            id="Vector"
            d="M31.4258 7.74023C30.7871 7.3042 30.1484 7.08618 29.4023 6.97705C29.3281 6.96777 29.2285 6.95972 29.1133 6.9502C28.4316 6.89453 27.1641 6.7915 27.1641 6.10498C27.1641 4.59351 30.375 5.24731 31.1055 5.99609L31.959 4.36084C30.1484 2.97119 25.3535 2.93677 25.3535 6.10498C25.3535 6.75903 25.5664 7.3042 25.9922 7.6311C26.5254 8.06714 27.2715 8.39429 28.0176 8.39429L28.8691 8.50342C29.1895 8.50342 29.6152 8.6123 29.9336 8.83032C30.1484 8.93921 30.2539 9.15747 30.2539 9.37524C30.2539 9.70239 30.041 9.92041 29.8281 10.1384C28.7773 10.6758 26.75 10.3689 25.8867 9.48438L25.1406 10.9016C25.2363 10.9666 25.3223 11.0315 25.4043 11.0938C25.5977 11.24 25.7695 11.3701 25.9922 11.4465C26.5254 11.6646 27.1641 11.8828 27.8047 11.8828L28.5488 11.8828C29.082 11.8828 29.6152 11.7737 30.041 11.6646C30.3574 11.5837 30.6152 11.4431 30.9004 11.2866C31 11.2322 31.1035 11.1758 31.2129 11.1196C31.5332 10.9016 31.7461 10.6836 31.959 10.3564C32.1719 10.0293 32.1719 9.70239 32.1719 9.26636C32.1719 8.72119 31.8516 8.06714 31.4258 7.74023Z"
            fill="#B1B1B1"
            fill-opacity="1.000000"
            fill-rule="nonzero"
          />
          <path
            id="Vector"
            d="M52.2012 4.57837L52.2012 3.7063L50.4961 3.7063L50.4961 11.7732L52.2012 11.7732L52.2012 7.30347C52.2012 6.97656 52.2012 6.64941 52.3066 6.4314C52.9219 5.17358 54.2305 4.9624 55.3965 5.55933L55.8223 3.81519C54.7227 3.25244 52.8105 3.3313 52.2012 4.57837Z"
            fill="#B1B1B1"
            fill-opacity="1.000000"
            fill-rule="nonzero"
          />
          <path
            id="Vector"
            d="M70.8438 4.6875C70.5254 4.36035 70.2051 4.03345 69.7793 3.81543C69.3535 3.59741 68.8203 3.48828 68.2871 3.48828C66.6895 3.48828 65.1973 4.46948 64.666 5.99561C64.2383 7.08569 64.2383 8.28467 64.666 9.375C64.8789 9.91992 65.1973 10.356 65.5176 10.6831C66.2637 11.446 67.3281 11.8823 68.2871 11.8823C68.8203 11.8823 69.2461 11.7732 69.7793 11.5552C70.2051 11.3372 70.5254 11.01 70.8438 10.6831L70.8438 11.6641L72.5488 11.6641L72.5488 3.7063L70.8438 3.7063L70.8438 4.6875ZM70.8438 8.72095C70.6309 9.375 70.2051 9.81104 69.5664 10.0291C68.9258 10.2471 68.1816 10.2471 67.541 10.0291C67.2227 9.91992 67.0098 9.7019 66.7949 9.48389C66.582 9.26587 66.4766 8.93872 66.3691 8.61182C66.1562 7.95776 66.1562 7.30371 66.3691 6.64966C66.582 5.99561 67.0098 5.55933 67.541 5.23242C67.8613 5.12354 68.1816 5.0144 68.5 5.0144C69.459 5.0144 70.418 5.55933 70.7383 6.54077C71.0566 7.4126 71.0566 8.06689 70.8438 8.72095Z"
            fill="#B1B1B1"
            fill-opacity="1.000000"
            fill-rule="evenodd"
          />
          <path
            id="Vector"
            d="M78.6211 3.46094C78.1953 3.46094 77.6621 3.57007 77.2363 3.67896C76.8105 3.89697 76.4902 4.11499 76.2773 4.55103L76.2773 3.67896L74.5723 3.67896L74.5723 11.7458L76.2773 11.7458L76.2773 7.27637C76.2773 6.94946 76.2773 6.62231 76.3828 6.4043C76.4902 6.18628 76.5957 5.96826 76.8105 5.75024C77.0234 5.53223 77.2363 5.4231 77.4492 5.31421C77.6621 5.20508 77.9824 5.20508 78.1953 5.20508C78.4082 5.20508 78.6211 5.20508 78.834 5.31421C79.0469 5.31421 79.2598 5.4231 79.4727 5.53223L79.8984 3.78809C79.793 3.7334 79.6855 3.7063 79.5801 3.67896C79.4727 3.65161 79.3672 3.62451 79.2598 3.57007C79.0469 3.46094 78.834 3.46094 78.6211 3.46094Z"
            fill="#B1B1B1"
            fill-opacity="1.000000"
            fill-rule="nonzero"
          />
          <path
            id="Vector"
            d="M84.8008 3.7063C85.7598 3.59741 86.7168 4.03345 87.25 4.79663L87.25 0L88.9551 0L88.9551 11.6643L87.1445 11.6643L87.1445 10.6831C86.9316 11.1191 86.6113 11.3372 86.1855 11.5554C85.7598 11.7732 85.332 11.8823 84.8008 11.8823C83.8418 11.8823 82.8828 11.4463 82.1367 10.6831C81.7695 10.4019 81.5605 9.95947 81.375 9.56372C81.3438 9.49927 81.3145 9.43604 81.2852 9.375C80.8574 8.28491 80.8574 7.19482 81.2852 6.10474C81.8164 4.6875 83.2012 3.7063 84.8008 3.7063ZM86.8691 9.23486C86.9688 9.08862 87.0762 8.92627 87.1445 8.72095C87.3574 8.17603 87.3574 7.41284 87.1445 6.75879C87.1191 6.70728 87.0938 6.64966 87.0664 6.58887C86.9805 6.39233 86.8809 6.16211 86.7168 5.99561C86.5039 5.77759 86.291 5.55957 85.9727 5.45068C85.6523 5.34155 85.332 5.23242 85.0137 5.23242C84.6934 5.23242 84.373 5.34155 84.0547 5.45068C83.5215 5.6687 83.0957 6.21387 82.8828 6.75879C82.6699 7.41284 82.6699 8.06689 82.8828 8.72095C83.0957 9.26587 83.5215 9.81104 84.0547 10.0291C84.6934 10.2471 85.332 10.2471 85.9727 10.0291C86.291 9.91992 86.5039 9.70215 86.7168 9.48413C86.7578 9.40283 86.8125 9.32178 86.8691 9.23486Z"
            fill="#B1B1B1"
            fill-opacity="1.000000"
            fill-rule="evenodd"
          />
        </svg>