      <svg
        width="60.000000"
        height="60.000000"
        viewBox="0 0 60 60"
        fill="none"
        xmlns="http://www.w3.org/2000/svg"
        xmlns:xlink="http://www.w3.org/1999/xlink"
      >
        <desc>Created with Pixso.</desc>
        <defs />
        <circle
          id="bg"
          cx="30.000000"
          cy="30.000000"
          r="30.000000"
          fill="#FFBC57"
          fill-opacity="1.000000"
        />
        <path
          id="Vector"
          d="M40.5 22L39 22L39 20.5C39 19.3065 38.5254 18.162 37.6816 17.318C36.8379 16.4741 35.6934 16 34.5 16L19.5 16C18.3066 16 17.1621 16.4741 16.3184 17.318C15.4746 18.162 15 19.3065 15 20.5L15 38.5C15 39.6935 15.4746 40.838 16.3184 41.682C17.1621 42.5259 18.3066 43 19.5 43L40.5 43C41.6934 43 42.8379 42.5259 43.6816 41.682C44.5254 40.838 45 39.6935 45 38.5L45 26.5C45 25.3065 44.5254 24.162 43.6816 23.318C42.8379 22.4741 41.6934 22 40.5 22ZM19.5 19L34.5 19C34.8984 19 35.2793 19.1581 35.5605 19.4393C35.8418 19.7207 36 20.1022 36 20.5L36 22L19.5 22C19.1016 22 18.7207 21.8419 18.4395 21.5607C18.1582 21.2793 18 20.8978 18 20.5C18 20.1022 18.1582 19.7207 18.4395 19.4393C18.7207 19.1581 19.1016 19 19.5 19ZM42 34L40.5 34C40.1016 34 39.7207 33.8419 39.4395 33.5607C39.1582 33.2793 39 32.8978 39 32.5C39 32.1022 39.1582 31.7207 39.4395 31.4393C39.7207 31.1581 40.1016 31 40.5 31L42 31L42 34ZM42 28L40.5 28C39.3066 28 38.1621 28.4741 37.3184 29.318C36.4746 30.162 36 31.3065 36 32.5C36 33.6935 36.4746 34.838 37.3184 35.682C38.1621 36.5259 39.3066 37 40.5 37L42 37L42 38.5C42 38.8978 41.8418 39.2793 41.5605 39.5607C41.2793 39.8419 40.8984 40 40.5 40L19.5 40C19.1016 40 18.7207 39.8419 18.4395 39.5607C18.1582 39.2793 18 38.8978 18 38.5L18 24.745C18.4824 24.9146 18.9883 25.0007 19.5 25L40.5 25C40.8984 25 41.2793 25.1581 41.5605 25.4393C41.8418 25.7207 42 26.1022 42 26.5L42 28Z"
          fill="#FFFFFF"
          fill-opacity="1.000000"
          fill-rule="nonzero"
        />
      </svg>