<svg
                          width="20.015625"
                          height="19.081909"
                          viewBox="0 0 20.0156 19.0819"
                          fill="none"
                          xmlns="http://www.w3.org/2000/svg"
                          xmlns:xlink="http://www.w3.org/1999/xlink"
                        >
                          <desc>Created with Pixso.</desc>
                          <defs />
                          <path
                            id="Vector"
                            d="M20 7.64099C20.1016 7.14099 19.6992 6.54089 19.1992 6.54089L13.5 5.74097L10.8984 0.540894C10.8008 0.340942 10.6992 0.240967 10.5 0.140991C10 -0.159058 9.39844 0.0408936 9.10156 0.540894L6.60156 5.74097L0.898438 6.54089C0.601562 6.54089 0.398438 6.64099 0.300781 6.84094C-0.101562 7.24097 -0.101562 7.84094 0.300781 8.24097L4.39844 12.241L3.39844 17.9409C3.39844 18.141 3.39844 18.3409 3.5 18.541C3.80078 19.041 4.39844 19.241 4.89844 18.9409L10 16.241L15.1016 18.9409C15.1992 19.041 15.3984 19.041 15.6016 19.041C15.6992 19.041 15.6992 19.041 15.8008 19.041C16.3008 18.9409 16.6992 18.4409 16.6016 17.8409L15.6016 12.141L19.6992 8.14099C19.8984 8.04089 20 7.84094 20 7.64099Z"
                            fill="#FFBC57"
                            fill-opacity="1.000000"
                            fill-rule="nonzero"
                          />
                        </svg>