<svg
                          width="20.027344"
                          height="19.133667"
                          viewBox="0 0 20.0273 19.1337"
                          fill="none"
                          xmlns="http://www.w3.org/2000/svg"
                          xmlns:xlink="http://www.w3.org/1999/xlink"
                        >
                          <desc>Created with Pixso.</desc>
                          <defs />
                          <path
                            id="Vector"
                            d="M19.9922 7.23413C19.9297 7.05115 19.8164 6.8905 19.6641 6.77161C19.5117 6.65271 19.3281 6.58057 19.1328 6.56409L13.4453 5.73413L10.8945 0.564087C10.8125 0.39502 10.6836 0.252441 10.5234 0.15271C10.3672 0.0528564 10.1797 0 9.99219 0C9.80469 0 9.62109 0.0528564 9.46094 0.15271C9.30469 0.252441 9.17578 0.39502 9.09375 0.564087L6.54297 5.72412L0.855469 6.56409C0.667969 6.59045 0.496094 6.66809 0.351562 6.78821C0.207031 6.90845 0.101562 7.06641 0.0429688 7.24414C-0.0078125 7.41772 -0.015625 7.60266 0.03125 7.77881C0.0742188 7.95496 0.164062 8.11584 0.292969 8.24414L4.42188 12.2441L3.42188 17.9241C3.38281 18.1125 3.39844 18.3086 3.46484 18.4888C3.53516 18.6688 3.65234 18.8254 3.80859 18.9395C3.96484 19.0536 4.14844 19.1204 4.34375 19.1318C4.53516 19.1433 4.72656 19.099 4.89453 19.0042L9.99219 16.3341L15.0938 19.0042C15.2344 19.0833 15.3906 19.1246 15.5547 19.1241C15.7656 19.1249 15.9727 19.0583 16.1445 18.9341C16.2969 18.823 16.418 18.6698 16.4883 18.4926C16.5625 18.3153 16.5781 18.1216 16.543 17.9341L15.543 12.2542L19.6719 8.25415C19.8164 8.13184 19.9258 7.97107 19.9805 7.79041C20.0391 7.60986 20.043 7.41699 19.9922 7.23413ZM13.8438 11.2341C13.7266 11.3466 13.6406 11.4852 13.5898 11.6385C13.5391 11.7917 13.5273 11.955 13.5547 12.1141L14.2734 16.3141L10.5117 14.3141C10.3672 14.2418 10.207 14.2042 10.043 14.2042C9.87891 14.2042 9.71875 14.2418 9.57422 14.3141L5.8125 16.3141L6.53516 12.1141C6.55859 11.955 6.54688 11.7917 6.49609 11.6385C6.44531 11.4852 6.35938 11.3466 6.24219 11.2341L3.24219 8.23413L7.45312 7.62415C7.61719 7.60156 7.76953 7.53967 7.90234 7.44373C8.03516 7.3479 8.14062 7.22095 8.21484 7.0741L9.99219 3.26416L11.875 7.08411C11.9453 7.23096 12.0508 7.35791 12.1836 7.45374C12.3164 7.54968 12.4727 7.61157 12.6328 7.63416L16.8438 8.24414L13.8438 11.2341Z"
                            fill="#FFBC57"
                            fill-opacity="1.000000"
                            fill-rule="nonzero"
                          />
                        </svg>