<svg
              width="69.998047"
              height="70.000000"
              viewBox="0 0 69.998 70"
              fill="none"
              xmlns="http://www.w3.org/2000/svg"
              xmlns:xlink="http://www.w3.org/1999/xlink"
            >
              <desc>Created with Pixso.</desc>
              <defs />
              <path
                id="Vector"
                d="M34.998 0C15.7012 0 0 15.7004 0 34.9985C0 54.2981 15.7012 70 34.998 70C54.2969 70 69.998 54.2981 69.998 34.9985C69.998 15.7004 54.2988 0 34.998 0ZM54.3359 32.4399L54.3359 32.4414L44.2051 39.772L48.1074 51.6985C48.168 51.8848 48.2012 52.0835 48.2012 52.2864C48.2012 53.3281 47.3574 54.1741 46.3164 54.1741C45.9023 54.1741 45.5215 54.0415 45.2109 53.8174L35 46.4316L24.7891 53.8174C24.4785 54.0415 24.0977 54.1741 23.6855 54.1741C22.6426 54.1741 21.7969 53.3296 21.7969 52.2864C21.7969 52.082 21.832 51.8848 21.8926 51.6985L25.7969 39.772L15.666 32.4414L15.666 32.4399C15.1914 32.0986 14.8848 31.542 14.8848 30.9131C14.8848 29.8713 15.7266 29.0283 16.7695 29.0283L29.3125 29.0283L33.1973 17.1567C33.4336 16.3855 34.1504 15.8245 35.002 15.8245C35.8496 15.8245 36.5684 16.3855 36.8047 17.1567L40.6875 29.0283L53.2305 29.0283C54.2734 29.0283 55.1172 29.8713 55.1172 30.9131C55.1152 31.542 54.8086 32.0986 54.3359 32.4399Z"
                fill="#FFBC57"
                fill-opacity="1.000000"
                fill-rule="nonzero"
              />
            </svg>