 <svg
        width="50.000000"
        height="50.000000"
        viewBox="0 0 50 50"
        fill="none"
        xmlns="http://www.w3.org/2000/svg"
        xmlns:xlink="http://www.w3.org/1999/xlink"
      >
        <desc>Created with Pixso.</desc>
        <defs />
        <circle
          id="Ellipse 9"
          cx="25.000000"
          cy="25.000000"
          r="25.000000"
          fill="#FFBC57"
          fill-opacity="1.000000"
        />
        <path
          id="Vector"
          d="M31.4062 26C31.1875 26 30.957 25.93 30.7383 25.88C30.293 25.7805 29.8555 25.6501 29.4258 25.49C28.9648 25.3212 28.4531 25.33 27.9961 25.5146C27.5391 25.6992 27.1641 26.0466 26.9492 26.49L26.7266 26.95C25.7578 26.3992 24.8594 25.7271 24.0586 24.95C23.2812 24.1484 22.6094 23.2512 22.0586 22.28L22.5195 22.07C22.9609 21.8529 23.3086 21.4795 23.4922 21.0217C23.6797 20.5638 23.6875 20.0539 23.5195 19.59C23.3594 19.159 23.2305 18.7181 23.1289 18.27C23.0781 18.05 23.0391 17.82 23.0078 17.6C22.8867 16.8956 22.5156 16.2578 21.9688 15.8012C21.418 15.3447 20.7227 15.0996 20.0078 15.11L16.9961 15.11C16.5742 15.1094 16.1562 15.1982 15.7695 15.3706C15.3867 15.5429 15.0391 15.7949 14.7578 16.11C14.4688 16.4337 14.2539 16.8157 14.1289 17.23C14.0039 17.6443 13.9688 18.081 14.0273 18.51C14.5703 22.6721 16.4727 26.5387 19.4375 29.51C22.4102 32.4748 26.2773 34.3764 30.4375 34.92C30.5664 34.9299 30.6992 34.9299 30.8281 34.92C31.5664 34.9211 32.2773 34.6505 32.8281 34.16C33.1445 33.8782 33.3945 33.5329 33.5664 33.1469C33.7383 32.7609 33.8281 32.3427 33.8281 31.92L33.8281 28.92C33.8242 28.229 33.5781 27.5611 33.1367 27.0291C32.6953 26.4971 32.0859 26.1336 31.4062 26ZM31.8984 32C31.8984 32.1396 31.8672 32.2775 31.8125 32.4049C31.7539 32.5324 31.6719 32.6465 31.5664 32.74C31.457 32.8398 31.3281 32.9141 31.1875 32.9573C31.043 33.0005 30.8945 33.0117 30.7461 32.99C27.0156 32.5026 23.5469 30.802 20.8789 28.15C18.207 25.4775 16.4883 21.9974 15.9961 18.25C15.9766 18.1033 15.9883 17.9537 16.0312 17.8119C16.0742 17.67 16.1484 17.5396 16.2461 17.43C16.3438 17.3252 16.457 17.2415 16.5859 17.1847C16.7148 17.1278 16.8555 17.0989 16.9961 17.1L19.9961 17.1C20.2305 17.0944 20.4531 17.169 20.6367 17.3112C20.8203 17.4534 20.9453 17.6544 20.9961 17.88C20.9961 18.15 21.0859 18.43 21.1484 18.7C21.2617 19.2239 21.418 19.7386 21.6094 20.24L20.207 20.9C19.9688 21.0105 19.7812 21.2119 19.6875 21.46C19.5859 21.7035 19.5859 21.9765 19.6875 22.22C21.125 25.3028 23.6055 27.7808 26.6875 29.22C26.9297 29.32 27.2031 29.32 27.4492 29.22C27.6953 29.1276 27.8984 28.9406 28.0078 28.7L28.6367 27.3C29.1523 27.4881 29.6797 27.6418 30.2188 27.76C30.4766 27.82 30.7578 27.87 31.0273 27.91C31.2539 27.9608 31.4531 28.0882 31.5977 28.2705C31.7383 28.4529 31.8125 28.6788 31.8086 28.91L31.8984 32ZM25.9961 15C25.7695 15 25.5273 15 25.2969 15C25.0312 15.0226 24.7891 15.1495 24.6172 15.353C24.4453 15.5565 24.3594 15.8198 24.3828 16.085C24.4062 16.3502 24.5312 16.5956 24.7344 16.7672C24.9375 16.9388 25.2031 17.0226 25.4688 17L25.9961 17C27.5898 17 29.1133 17.6321 30.2422 18.7574C31.3672 19.8826 31.9961 21.4087 31.9961 23C31.9961 23.18 31.9961 23.35 31.9961 23.53C31.9766 23.7938 32.0586 24.0556 32.2305 24.2581C32.3984 24.4605 32.6445 24.5871 32.9062 24.61L32.9883 24.61C33.2383 24.611 33.4805 24.5181 33.6641 24.3496C33.8516 24.1811 33.9648 23.9493 33.9883 23.7C33.9883 23.47 33.9883 23.23 33.9883 23C33.9883 20.88 33.1445 18.8467 31.6484 17.3467C30.1484 15.8467 28.1172 15.0027 25.9961 15ZM27.9961 23C27.9961 23.2652 28.1016 23.5196 28.2891 23.7071C28.4766 23.8947 28.7344 24 28.9961 24C29.2617 24 29.5156 23.8947 29.7031 23.7071C29.8906 23.5196 29.9961 23.2652 29.9961 23C29.9961 21.9391 29.5781 20.9217 28.8242 20.1716C28.0742 19.4214 27.0586 19 25.9961 19C25.7344 19 25.4766 19.1053 25.2891 19.2929C25.1016 19.4804 24.9961 19.7348 24.9961 20C24.9961 20.2652 25.1016 20.5196 25.2891 20.7071C25.4766 20.8947 25.7344 21 25.9961 21C26.5273 21 27.0352 21.2107 27.4102 21.5858C27.7852 21.9608 27.9961 22.4696 27.9961 23Z"
          fill="#FFFFFF"
          fill-opacity="1.000000"
          fill-rule="nonzero"
        />
      </svg>