 <svg
                width="50.000000"
                height="48.108521"
                viewBox="0 0 50 48.1085"
                fill="none"
                xmlns="http://www.w3.org/2000/svg"
              >
                <defs />
                <path
                  id="Vector"
                  d="M46.2695 7.09833L33.8809 7.09833L33.8809 3.72064C33.8809 1.66284 32.207 0 30.1504 0L3.7207 0C1.66211 0 0 1.67328 0 3.72064L0 44.3879C0 46.4456 1.67383 48.1085 3.7207 48.1085L30.1504 48.1085C32.207 48.1085 33.8809 46.4352 33.8809 44.3879L33.8809 39.3265L46.2695 39.3265C48.3262 39.3265 50 37.6533 50 35.6059L50 10.8293C49.9902 8.77155 48.3164 7.09833 46.2695 7.09833ZM42.5996 9.59259L42.5996 36.8323L40.1992 36.8323L40.1992 9.59259L42.5996 9.59259ZM31.3867 44.3774C31.3867 45.053 30.8359 45.6038 30.1504 45.6038L3.7207 45.6038C3.04492 45.6038 2.49414 45.053 2.49414 44.3774L2.49414 3.72064C2.49414 3.0451 3.04492 2.49426 3.7207 2.49426L30.1504 2.49426C30.8242 2.49426 31.3867 3.0451 31.3867 3.72064L31.3867 44.3774ZM33.8809 9.59259L37.7148 9.59259L37.7148 36.8323L33.8809 36.8323L33.8809 9.59259ZM47.4961 35.5955C47.4961 36.2711 46.9453 36.8218 46.2578 36.8218L45.0938 36.8218L45.0938 9.59259L46.2578 9.59259C46.9336 9.59259 47.4961 10.1434 47.4961 10.819L47.4961 35.5955Z"
                  fill="#FFFFFF"
                  fill-opacity="1.000000"
                  fill-rule="nonzero"
                />
                <path
                  id="Vector"
                  d="M9.78906 22.3031L24.0801 22.3031C25.8359 22.3031 27.2598 20.8793 27.2598 19.1229L27.2598 9.77972C27.2598 8.02332 25.8359 6.59949 24.0801 6.59949L9.78906 6.59949C8.0332 6.59949 6.60938 8.02332 6.60938 9.77972L6.60938 19.1229C6.60938 20.8793 8.0332 22.3031 9.78906 22.3031ZM9.10352 9.77972C9.10352 9.39514 9.41602 9.09375 9.78906 9.09375L24.0801 9.09375C24.4648 9.09375 24.7656 9.40558 24.7656 9.77972L24.7656 19.1229C24.7656 19.5074 24.4531 19.8088 24.0801 19.8088L9.78906 19.8088C9.4043 19.8088 9.10352 19.497 9.10352 19.1229L9.10352 9.77972Z"
                  fill="#FFFFFF"
                  fill-opacity="1.000000"
                  fill-rule="nonzero"
                />
                <path
                  id="Vector"
                  d="M9.50977 27.4787L7.85742 27.4787C7.16992 27.4787 6.60938 28.0399 6.60938 28.7258C6.60938 29.4117 7.16992 29.973 7.85742 29.973L9.50977 29.973C10.1953 29.973 10.7559 29.4117 10.7559 28.7258C10.7559 28.0399 10.1953 27.4787 9.50977 27.4787Z"
                  fill="#FFFFFF"
                  fill-opacity="1.000000"
                  fill-rule="nonzero"
                />
                <path
                  id="Vector"
                  d="M17.7617 27.4787L16.1094 27.4787C15.4219 27.4787 14.8613 28.0399 14.8613 28.7258C14.8613 29.4117 15.4219 29.973 16.1094 29.973L17.7617 29.973C18.4473 29.973 19.0078 29.4117 19.0078 28.7258C19.0078 28.0399 18.4473 27.4787 17.7617 27.4787Z"
                  fill="#FFFFFF"
                  fill-opacity="1.000000"
                  fill-rule="nonzero"
                />
                <path
                  id="Vector"
                  d="M26.0254 27.4787L24.373 27.4787C23.6855 27.4787 23.125 28.0399 23.125 28.7258C23.125 29.4117 23.6855 29.973 24.373 29.973L26.0254 29.973C26.7109 29.973 27.2715 29.4117 27.2715 28.7258C27.2715 28.0399 26.7109 27.4787 26.0254 27.4787Z"
                  fill="#FFFFFF"
                  fill-opacity="1.000000"
                  fill-rule="nonzero"
                />
                <path
                  id="Vector"
                  d="M9.50977 33.1116L7.85742 33.1116C7.16992 33.1116 6.60938 33.6729 6.60938 34.3588C6.60938 35.0447 7.16992 35.6059 7.85742 35.6059L9.50977 35.6059C10.1953 35.6059 10.7559 35.0447 10.7559 34.3588C10.7559 33.6729 10.1953 33.1116 9.50977 33.1116Z"
                  fill="#FFFFFF"
                  fill-opacity="1.000000"
                  fill-rule="nonzero"
                />
                <path
                  id="Vector"
                  d="M17.7617 33.1116L16.1094 33.1116C15.4219 33.1116 14.8613 33.6729 14.8613 34.3588C14.8613 35.0447 15.4219 35.6059 16.1094 35.6059L17.7617 35.6059C18.4473 35.6059 19.0078 35.0447 19.0078 34.3588C19.0078 33.6729 18.4473 33.1116 17.7617 33.1116Z"
                  fill="#FFFFFF"
                  fill-opacity="1.000000"
                  fill-rule="nonzero"
                />
                <path
                  id="Vector"
                  d="M26.0254 33.1116L24.373 33.1116C23.6855 33.1116 23.125 33.6729 23.125 34.3588C23.125 35.0447 23.6855 35.6059 24.373 35.6059L26.0254 35.6059C26.7109 35.6059 27.2715 35.0447 27.2715 34.3588C27.2715 33.6729 26.7109 33.1116 26.0254 33.1116Z"
                  fill="#FFFFFF"
                  fill-opacity="1.000000"
                  fill-rule="nonzero"
                />
                <path
                  id="Vector"
                  d="M9.50977 38.7446L7.85742 38.7446C7.16992 38.7446 6.60938 39.3058 6.60938 39.9917C6.60938 40.6776 7.16992 41.2388 7.85742 41.2388L9.50977 41.2388C10.1953 41.2388 10.7559 40.6776 10.7559 39.9917C10.7559 39.3058 10.1953 38.7446 9.50977 38.7446Z"
                  fill="#FFFFFF"
                  fill-opacity="1.000000"
                  fill-rule="nonzero"
                />
                <path
                  id="Vector"
                  d="M17.7617 38.7446L16.1094 38.7446C15.4219 38.7446 14.8613 39.3058 14.8613 39.9917C14.8613 40.6776 15.4219 41.2388 16.1094 41.2388L17.7617 41.2388C18.4473 41.2388 19.0078 40.6776 19.0078 39.9917C19.0078 39.3058 18.4473 38.7446 17.7617 38.7446Z"
                  fill="#FFFFFF"
                  fill-opacity="1.000000"
                  fill-rule="nonzero"
                />
                <path
                  id="Vector"
                  d="M26.0254 38.7446L24.373 38.7446C23.6855 38.7446 23.125 39.3058 23.125 39.9917C23.125 40.6776 23.6855 41.2388 24.373 41.2388L26.0254 41.2388C26.7109 41.2388 27.2715 40.6776 27.2715 39.9917C27.2715 39.3058 26.7109 38.7446 26.0254 38.7446Z"
                  fill="#FFFFFF"
                  fill-opacity="1.000000"
                  fill-rule="nonzero"
                />
              </svg>