<svg
            width="78.769531"
            height="52.561279"
            viewBox="0 0 78.7695 52.5613"
            fill="none"
            xmlns="http://www.w3.org/2000/svg"
            xmlns:xlink="http://www.w3.org/1999/xlink"
          >
            <desc>Created with Pixso.</desc>
            <defs />
            <path
              id="Vector"
              d="M78.7695 18.929L78.2012 17.5812L74.2656 15.2351L69.2754 15.2714L66.5508 12.0073L63.4102 13.275L60.9102 12.3206L59.1777 12.9034L55.9199 7.21289L53.6113 7.01636L52.0508 0.947021L45.8145 0L44.5977 1.55908L39.3887 1.49353L37.7129 3.93445L37.5449 6.97266L35.9121 5.30396L32.584 5.87231L31.7168 4.1748L25.625 4.69202L17.1445 1.07104L12.3789 0.808594L8.80859 4.00708L10.207 8.94702L3.00195 15.4316L3.51172 18.98L2.14258 18.3899L0 21.3772L3.49805 25.756L10.1504 27.0237L11.5918 28.6779L17.3262 27.3662L18.0332 25.9674L23.4824 24.6631L29.3047 28.175L30.2871 31.3298L32.1973 32.8163L32.0957 35.3225L33.6113 38.2224L30.2812 39.155L29.043 41.4575L25.6758 44.4664L27.9492 46.5286L34.4629 42.9L37.6406 38.8418L39.4531 37.676L43.0098 37.1222L42.4766 38.4409L42.3105 38.696L44.3359 41.0785L50.6387 41.1077L50.9512 42.4994L45.5234 45.5302L50.3828 47.9492L50.4277 49.5522L49.5371 51.4683L51.207 52.5613L54.0117 51.5557L60.1094 47.6141L63.9121 47.7889L64.4805 45.3699L62.3828 45.2317L59.3516 46.4265L57.043 43.6287L52.0508 40.4957L58.1641 40.0658L58.2305 40.1022L60.998 37.3699L68.5039 34.0985L71.373 33.8363L71.7598 30.4484L74.6973 28.5684L77.9395 28.4591L78.7188 25.4427L77.3125 21.4061L78.7695 18.929Z"
              fill="#FFFFFF"
              fill-opacity="1.000000"
              fill-rule="nonzero"
            />
          </svg>