        <svg
          width="50.000000"
          height="50.000000"
          viewBox="0 0 50 50"
          fill="none"
          xmlns="http://www.w3.org/2000/svg"
          xmlns:xlink="http://www.w3.org/1999/xlink"
        >
          <desc>Created with Pixso.</desc>
          <defs />
          <circle
            id="Ellipse 5"
            cx="25.000000"
            cy="25.000000"
            r="25.000000"
            fill="#FFFFFF"
            fill-opacity="1.000000"
          />
          <circle
            id="Ellipse 5"
            cx="25.000000"
            cy="25.000000"
            r="24.500000"
            stroke="#FFBC57"
            stroke-opacity="1.000000"
            stroke-width="1.000000"
          />
          <path
            id="Vector"
            d="M28.3125 25.6339C29.1875 24.9453 29.8281 24.0009 30.1406 22.9321C30.4531 21.8633 30.4258 20.7234 30.0625 19.671C29.6992 18.6185 29.0156 17.7057 28.1094 17.0597C27.1992 16.4137 26.1133 16.0665 25 16.0665C23.8867 16.0665 22.8008 16.4137 21.8945 17.0597C20.9844 17.7057 20.3008 18.6185 19.9375 19.671C19.5742 20.7234 19.5469 21.8633 19.8594 22.9321C20.1719 24.0009 20.8125 24.9453 21.6875 25.6339C20.1875 26.2349 18.8789 27.2316 17.9023 28.5178C16.9219 29.804 16.3125 31.3315 16.1328 32.9375C16.1211 33.0547 16.1328 33.1734 16.1641 33.2867C16.1992 33.3999 16.2539 33.5056 16.3281 33.5976C16.4766 33.7835 16.6914 33.9025 16.9297 33.9286C17.1641 33.9547 17.4023 33.8856 17.5898 33.7365C17.7734 33.5875 17.8945 33.3707 17.9219 33.1339C18.1172 31.3885 18.9492 29.7766 20.2578 28.6061C21.5664 27.4355 23.2617 26.7885 25.0195 26.7885C26.7734 26.7885 28.4688 27.4355 29.7773 28.6061C31.0898 29.7766 31.9219 31.3885 32.1172 33.1339C32.1406 33.3533 32.2461 33.556 32.4102 33.7027C32.5742 33.8494 32.7891 33.9299 33.0078 33.9286L33.1094 33.9286C33.3398 33.9017 33.5547 33.7833 33.7031 33.5994C33.8516 33.4153 33.918 33.1807 33.8945 32.9464C33.7148 31.3359 33.1016 29.8044 32.1172 28.5162C31.1328 27.2281 29.8203 26.2317 28.3125 25.6339ZM25 25C24.293 25 23.6016 24.7905 23.0156 24.3981C22.4297 24.0057 21.9727 23.4479 21.6992 22.7953C21.4297 22.1427 21.3594 21.4246 21.4961 20.7318C21.6367 20.0391 21.9766 19.4026 22.4766 18.9032C22.9727 18.4037 23.6094 18.0636 24.3047 17.9258C24.9961 17.788 25.7148 17.8587 26.3672 18.129C27.0195 18.3993 27.5781 18.8571 27.9688 19.4444C28.3633 20.0317 28.5703 20.7222 28.5703 21.4286C28.5703 22.3758 28.1953 23.2842 27.5273 23.954C26.8555 24.6237 25.9492 25 25 25Z"
            fill="#535353"
            fill-opacity="1.000000"
            fill-rule="nonzero"
          />
        </svg>