  <svg
          width="33.333984"
          height="33.333374"
          viewBox="0 0 33.334 33.3334"
          fill="none"
          xmlns="http://www.w3.org/2000/svg"
          xmlns:xlink="http://www.w3.org/1999/xlink"
        >
          <desc>Created with Pixso.</desc>
          <defs />
          <path
            id="Vector"
            d="M15.4824 22.15C15.4121 22.2292 15.3457 22.3127 15.2832 22.4C15.2207 22.4929 15.1699 22.5938 15.1328 22.7C15.0859 22.7944 15.0508 22.8956 15.0332 23C15.0254 23.111 15.0254 23.2224 15.0332 23.3334C15.0273 23.552 15.0742 23.7689 15.166 23.9667C15.2422 24.1735 15.3613 24.3613 15.5156 24.5168C15.6719 24.6724 15.8594 24.7919 16.0664 24.8667C16.2656 24.9548 16.4824 25.0004 16.6992 25.0004C16.918 25.0004 17.1348 24.9548 17.334 24.8667C17.541 24.7919 17.7285 24.6724 17.8828 24.5168C18.0391 24.3613 18.1582 24.1735 18.2324 23.9667C18.3066 23.764 18.3418 23.549 18.334 23.3334C18.334 23.114 18.293 22.8966 18.209 22.6935C18.127 22.4905 18.0039 22.3058 17.8496 22.15C17.6953 21.9938 17.5098 21.8698 17.3086 21.7852C17.1055 21.7006 16.8867 21.657 16.666 21.657C16.4473 21.657 16.2285 21.7006 16.0254 21.7852C15.8223 21.8698 15.6387 21.9938 15.4824 22.15ZM16.666 0C13.3711 0 10.1484 0.977539 7.40625 2.80884C4.66602 4.64014 2.5293 7.24316 1.26953 10.2886C0.0078125 13.334 -0.322266 16.6852 0.320312 19.9182C0.962891 23.1512 2.55078 26.1208 4.88086 28.4518C7.21289 30.7827 10.1816 32.37 13.416 33.0131C16.6484 33.6561 20 33.3262 23.0449 32.0647C26.0898 30.8032 28.6934 28.667 30.5254 25.9261C32.3555 23.1853 33.334 19.963 33.334 16.6666C33.334 14.478 32.9023 12.3107 32.0645 10.2886C31.2266 8.26648 30 6.4292 28.4512 4.88159C26.9043 3.33386 25.0664 2.1062 23.0449 1.26868C21.0234 0.431152 18.8555 0 16.666 0ZM16.666 30C14.0293 30 11.4512 29.218 9.25977 27.7529C7.06641 26.2878 5.35742 24.2054 4.34766 21.7692C3.33984 19.3328 3.07422 16.6519 3.58984 14.0654C4.10352 11.479 5.37305 9.10327 7.23828 7.23853C9.10352 5.3739 11.4785 4.104 14.0664 3.58948C16.6523 3.07507 19.332 3.33911 21.7695 4.34827C24.2051 5.35742 26.2871 7.06641 27.7539 9.25903C29.2188 11.4517 30 14.0295 30 16.6666C30 20.2029 28.5957 23.5942 26.0957 26.0947C23.5938 28.5952 20.2031 30 16.666 30ZM16.666 8.33337C15.7891 8.33276 14.9258 8.56348 14.1641 9.00244C13.4043 9.44128 12.7715 10.0728 12.334 10.8334C12.2129 11.0231 12.1309 11.2351 12.0957 11.4569C12.0586 11.6787 12.0684 11.9056 12.1211 12.124C12.1738 12.3423 12.2715 12.5476 12.4062 12.7274C12.541 12.9072 12.7109 13.0579 12.9062 13.1704C13.0996 13.2828 13.3164 13.3549 13.5391 13.382C13.7617 13.4091 13.9883 13.3907 14.2051 13.3281C14.4199 13.2655 14.6211 13.1598 14.7949 13.0176C14.9688 12.8752 15.1133 12.6992 15.2168 12.5C15.3633 12.2456 15.5742 12.0347 15.8301 11.8883C16.084 11.7419 16.373 11.6655 16.666 11.6666C17.1094 11.6666 17.5332 11.8423 17.8457 12.1548C18.1582 12.4674 18.334 12.8914 18.334 13.3334C18.334 13.7754 18.1582 14.1993 17.8457 14.5118C17.5332 14.8245 17.1094 15 16.666 15C16.2246 15 15.8008 15.1755 15.4883 15.4882C15.1758 15.8007 15 16.2246 15 16.6666L15 18.3334C15 18.7754 15.1758 19.1993 15.4883 19.5118C15.8008 19.8245 16.2246 20 16.666 20C17.1094 20 17.5332 19.8245 17.8457 19.5118C18.1582 19.1993 18.334 18.7754 18.334 18.3334L18.334 18.0333C19.4355 17.6334 20.3613 16.8588 20.9512 15.8447C21.541 14.8308 21.7539 13.6422 21.5566 12.4865C21.3574 11.3308 20.7578 10.2817 19.8652 9.52258C18.9707 8.76331 17.8398 8.34241 16.666 8.33337Z"
            fill="#FFBC57"
            fill-opacity="1.000000"
            fill-rule="nonzero"
          />
        </svg>