              <svg
                width="20.000000"
                height="20.000000"
                viewBox="0 0 20 20"
                fill="none"
                xmlns="http://www.w3.org/2000/svg"
                xmlns:xlink="http://www.w3.org/1999/xlink"
              >
                <desc>Created with Pixso.</desc>
                <defs />
                <path
                  id="Vector"
                  d="M12.72 6.79004L8.43005 11.09L6.78003 9.43994C6.69031 9.33533 6.58008 9.25024 6.45593 9.19031C6.33191 9.13025 6.19678 9.09656 6.05908 9.09119C5.92139 9.08594 5.78406 9.10913 5.65564 9.15942C5.52734 9.20959 5.41077 9.28589 5.31335 9.3833C5.21594 9.48083 5.13965 9.59741 5.08936 9.72571C5.03906 9.854 5.01587 9.99133 5.02124 10.129C5.02649 10.2667 5.0603 10.4019 5.12024 10.526C5.1803 10.65 5.26538 10.7604 5.37 10.85L7.71997 13.21C7.81348 13.3027 7.92432 13.376 8.04614 13.4258C8.16797 13.4756 8.29834 13.5007 8.43005 13.5C8.69238 13.4989 8.94373 13.3948 9.13 13.21L14.13 8.20996C14.2238 8.11707 14.2981 8.00647 14.3489 7.88452C14.3997 7.7627 14.4258 7.63196 14.4258 7.5C14.4258 7.36804 14.3997 7.2373 14.3489 7.11548C14.2981 6.99353 14.2238 6.88293 14.13 6.79004C13.9426 6.60376 13.6892 6.49927 13.425 6.49927C13.1608 6.49927 12.9073 6.60376 12.72 6.79004ZM10 0C8.02222 0 6.08875 0.586548 4.44434 1.6853C2.7998 2.78406 1.51807 4.34595 0.76123 6.17322C0.00427246 8.00037 -0.193726 10.0111 0.192139 11.9509C0.578003 13.8907 1.5304 15.6725 2.92896 17.071C4.32751 18.4696 6.10925 19.422 8.04907 19.8079C9.98889 20.1937 11.9996 19.9957 13.8268 19.2388C15.6541 18.4819 17.2159 17.2002 18.3147 15.5557C19.4136 13.9113 20 11.9778 20 10C20 8.68677 19.7413 7.38647 19.2388 6.17322C18.7362 4.95996 17.9996 3.85754 17.071 2.92896C16.1425 2.00037 15.04 1.26379 13.8268 0.76123C12.6135 0.258667 11.3132 0 10 0ZM10 18C8.41772 18 6.87109 17.5308 5.55542 16.6517C4.23987 15.7727 3.21448 14.5233 2.60901 13.0615C2.00342 11.5996 1.84509 9.99109 2.15369 8.43933C2.4624 6.88745 3.22437 5.46191 4.34314 4.34314C5.46191 3.22437 6.88745 2.4624 8.43933 2.15369C9.99109 1.84509 11.5996 2.00342 13.0615 2.60901C14.5233 3.21448 15.7727 4.23987 16.6517 5.55542C17.5308 6.87097 18 8.41772 18 10C18 12.1217 17.1571 14.1566 15.6569 15.6569C14.1566 17.1571 12.1217 18 10 18Z"
                  fill="#82B09D"
                  fill-opacity="1.000000"
                  fill-rule="nonzero"
                />
              </svg>